<svg xmlns="http://www.w3.org/2000/svg" width="43" height="37" fill="none" viewBox="0 0 43 37">
    <path fill="#A8AAB2" d="M38.038 29.744H4.962c-.414 0-.793.33-1.137.994-.345.662-.517 1.432-.517 2.31 0 .878.172 1.648.517 2.311.344.663.723.994 1.137.994h33.077c.413 0 .792-.331 1.136-.994.345-.663.517-1.433.517-2.31 0-.879-.172-1.649-.517-2.311-.344-.663-.723-.994-1.136-.994zM3.309 1.652c-.913 0-1.693.323-2.339.969A3.183 3.183 0 0 0 0 4.957c0 .913.323 1.691.97 2.337a3.188 3.188 0 0 0 2.338.968l2.067 18.15h32.25l2.067-18.15c.913 0 1.693-.323 2.339-.968A3.183 3.183 0 0 0 43 4.957c0-.912-.323-1.69-.969-2.336a3.188 3.188 0 0 0-2.339-.969c-.913 0-1.692.323-2.338.969a3.182 3.182 0 0 0-.97 2.336c0 .964.354 1.773 1.06 2.427-2.636 3.15-4.419 5.185-5.349 6.106-.93.921-1.706 1.382-2.326 1.382-.585 0-1.3-.573-2.145-1.717-.844-1.145-2.308-3.49-4.393-7.036a3.239 3.239 0 0 0 1.15-1.188c.285-.499.427-1.04.427-1.626 0-.912-.323-1.691-.97-2.337A3.188 3.188 0 0 0 21.5 0c-.913 0-1.693.323-2.339.968a3.182 3.182 0 0 0-.969 2.337c0 .585.142 1.127.427 1.626.284.5.667.895 1.15 1.188-2.085 3.546-3.55 5.891-4.393 7.036-.845 1.144-1.56 1.717-2.145 1.717-.62 0-1.396-.46-2.326-1.382-.93-.92-2.713-2.956-5.35-6.106.707-.654 1.06-1.463 1.06-2.427 0-.912-.323-1.69-.969-2.336a3.188 3.188 0 0 0-2.338-.969z"/>
</svg>
