<svg xmlns="http://www.w3.org/2000/svg" width="44" height="37" fill="none" viewBox="0 0 44 37">
    <path fill="#E26B00" d="M38.923 29.744H5.077c-.423 0-.811.33-1.164.994-.352.662-.528 1.432-.528 2.31 0 .878.176 1.648.528 2.311.353.663.74.994 1.164.994h33.846c.423 0 .811-.331 1.163-.994.353-.663.53-1.433.53-2.31 0-.879-.177-1.649-.53-2.311-.352-.663-.74-.994-1.163-.994zM3.385 1.652c-.935 0-1.732.323-2.393.969C.33 3.266 0 4.045 0 4.957c0 .913.33 1.691.992 2.337.66.645 1.458.968 2.393.968L5.5 26.412h33l2.115-18.15c.935 0 1.732-.323 2.393-.968.661-.646.992-1.424.992-2.337 0-.912-.33-1.69-.992-2.336-.66-.646-1.458-.969-2.393-.969-.934 0-1.732.323-2.393.969-.66.645-.991 1.424-.991 2.336 0 .964.361 1.773 1.084 2.427-2.697 3.15-4.522 5.185-5.474 6.106-.952.921-1.745 1.382-2.38 1.382-.599 0-1.33-.573-2.194-1.717-.864-1.145-2.362-3.49-4.495-7.036a3.273 3.273 0 0 0 1.176-1.188c.291-.499.437-1.04.437-1.626 0-.912-.33-1.691-.992-2.337C23.732.323 22.934 0 22 0c-.934 0-1.732.323-2.393.968-.661.646-.992 1.425-.992 2.337 0 .585.146 1.127.437 1.626.29.5.683.895 1.176 1.188-2.133 3.546-3.631 5.891-4.495 7.036-.864 1.144-1.595 1.717-2.194 1.717-.635 0-1.428-.46-2.38-1.382-.952-.92-2.777-2.956-5.474-6.106.723-.654 1.084-1.463 1.084-2.427 0-.912-.33-1.69-.991-2.336-.661-.646-1.46-.969-2.393-.969z"/>
</svg>
