<svg xmlns="http://www.w3.org/2000/svg" width="57" height="48" fill="none" viewBox="0 0 57 48">
    <path fill="#FFD400" d="M50.182 39.273H6.545c-.545 0-1.045.437-1.5 1.312-.454.875-.681 1.892-.681 3.051 0 1.16.227 2.176.681 3.051C5.5 47.563 6 48 6.545 48h43.637c.545 0 1.045-.438 1.5-1.313.454-.874.682-1.892.682-3.05 0-1.16-.228-2.177-.682-3.052-.455-.875-.955-1.312-1.5-1.312zM4.364 2.182c-1.205 0-2.233.426-3.086 1.278C.426 4.313 0 5.34 0 6.545s.426 2.233 1.278 3.086c.853.852 1.881 1.278 3.086 1.278L7.09 34.875h42.545l2.728-23.966c1.204 0 2.233-.426 3.085-1.278.852-.853 1.278-1.881 1.278-3.086 0-1.204-.426-2.232-1.278-3.085-.852-.852-1.88-1.278-3.085-1.278s-2.233.426-3.086 1.278C48.426 4.313 48 5.34 48 6.545c0 1.273.466 2.341 1.398 3.205-3.478 4.16-5.83 6.847-7.057 8.063-1.227 1.215-2.25 1.823-3.068 1.823-.773 0-1.716-.755-2.83-2.267-1.113-1.511-3.045-4.608-5.795-9.29a4.275 4.275 0 0 0 1.517-1.568 4.27 4.27 0 0 0 .562-2.147c0-1.205-.426-2.233-1.278-3.086C30.597.426 29.569 0 28.364 0s-2.233.426-3.086 1.278C24.426 2.131 24 3.16 24 4.364c0 .772.188 1.488.563 2.147.375.66.88 1.182 1.517 1.569-2.75 4.681-4.682 7.778-5.796 9.29-1.113 1.51-2.057 2.266-2.83 2.266-.818 0-1.84-.608-3.068-1.823-1.227-1.216-3.58-3.904-7.056-8.063.931-.864 1.397-1.932 1.397-3.205 0-1.204-.426-2.232-1.278-3.085-.852-.852-1.88-1.278-3.085-1.278z"/>
</svg>
