<svg xmlns="http://www.w3.org/2000/svg" width="569" height="246" fill="none" viewBox="0 0 569 246">
    <path fill="#EC2C6F" d="M518.118 40.651l14.917-13.374L551.76 48.16l-14.917 13.374z"/>
    <path fill="#EC2C6F" d="M518.118 40.651l14.917-13.374L551.76 48.16l-14.917 13.374zM0 209.046l14.917-13.375 18.725 20.885-14.918 13.374z"/>
    <path fill="#EC2C6F" d="M0 209.046l14.917-13.375 18.725 20.885-14.918 13.374zM537.083 108.322l6.414-14.006L569 105.996 562.585 120z"/>
    <path fill="#EC2C6F" d="M537.083 108.322l6.414-14.006L569 105.996 562.585 120zM544.304 245.991l-9.364-12.232 22.272-17.05 9.364 12.232z"/>
    <path fill="#EC2C6F" d="M544.304 245.991l-9.364-12.232 22.272-17.05 9.364 12.232zM43.425 83.707l-9.364-12.232 22.271-17.05 9.365 12.231z"/>
    <path fill="#EC2C6F" d="M43.425 83.707l-9.364-12.232 22.271-17.05 9.365 12.231zM119.975 31.312l-12.664-5.845L119.067 0l12.664 5.846z"/>
    <path fill="#EC2C6F" d="M119.975 31.312l-12.664-5.845L119.067 0l12.664 5.846z"/>
</svg>
