<svg xmlns="http://www.w3.org/2000/svg" width="1304" height="944" fill="none" viewBox="0 0 1304 944">
    <path fill="url(#a)" d="M0 0h1304v944H0z"/>
    <rect width="670" height="535" x="317" y="222" fill="url(#b)" rx="25"/>
    <path fill="url(#c)" d="M570.901 196.216c0 .75-.291 1.437-.875 2.062-.583.625-1.229.938-1.937.938-.375 0-.771-.063-1.188-.188-.416-.125-.75-.24-1-.344-.02 0-.27-.104-.75-.312-1.354 23.562-4.573 40.76-9.656 51.594-1.333 2.812-2.917 4.218-4.75 4.218-5.167 0-9.01-10.177-11.531-30.531-3.313 9.854-6.042 16.781-8.188 20.781-2.416 4.542-4.802 6.813-7.156 6.813-1.625 0-3.146-.979-4.562-2.938-1.355-1.875-2.823-4.948-4.407-9.218-3.145-8.542-4.718-21.365-4.718-38.469v-2.25c-.417.041-.969.135-1.657.281-.583.125-1 .188-1.25.188-2.083 0-3.125-1.073-3.125-3.219 0-2.521 3.334-3.781 10-3.781 3.105 0 5.594.395 7.469 1.187 1.875.771 2.813 1.74 2.813 2.906 0 2.229-1 3.344-3 3.344-.5 0-1.261-.146-2.282-.437-1.125-.334-2.031-.532-2.718-.594l-.125 7.812c0 15.521 2.583 28.167 7.75 37.938 3.208-4.438 6.854-13.334 10.937-26.688.729-2.375 1.458-5.302 2.188-8.781.604-2.875 1.083-4.708 1.437-5.5.563-1.271 1.386-1.906 2.469-1.906 1.521 0 2.51.719 2.969 2.156.312 1.021.468 3.146.468 6.375 0 .521-.01 1.146-.031 1.875a63.23 63.23 0 0 0-.031 1.313c0 12.666 2.073 23.718 6.219 33.156 4.375-11.167 7.145-27.25 8.312-48.25-.312.021-.844.114-1.594.281-.625.146-1.114.219-1.468.219-2.042 0-3.063-1.063-3.063-3.188 0-2.437 2.792-3.656 8.375-3.656 2.833 0 5.188.5 7.063 1.5 1.729.938 2.593 2.042 2.593 3.313zm21.719 51.125c0 1.729-1 3.093-3 4.093-2 1.021-4.844 1.532-8.531 1.532-3.646 0-6.469-.396-8.469-1.188-2-.771-3-1.823-3-3.156 0-2.188 1.031-3.281 3.094-3.281.479 0 1.187.145 2.125.437 1.458.438 2.385.698 2.781.781.854-8.333 1.281-15.26 1.281-20.781 0-8.958-1.166-17.135-3.5-24.531-.916.125-1.968.406-3.156.844-1.062.375-1.76.562-2.094.562-.666 0-1.239-.292-1.718-.875-.48-.583-.719-1.312-.719-2.187 0-3.021 3.177-4.532 9.531-4.532 4.208 0 7.542.584 10 1.75 2.333 1.104 3.5 2.563 3.5 4.375 0 1.625-.656 2.438-1.969 2.438-.312 0-1.093-.198-2.343-.594-1.625-.521-3.063-.917-4.313-1.187 2.167 7.541 3.25 15.52 3.25 23.937 0 5.396-.489 12.344-1.469 20.844.813-.229 2-.667 3.563-1.313 1.146-.479 1.989-.718 2.531-.718.729 0 1.344.26 1.844.781.521.541.781 1.198.781 1.969zm52.813-49.532c0 .834-.292 2.979-.875 6.438-.709 4.208-1.23 7.927-1.563 11.156-.854 8.708-1.281 15.854-1.281 21.438 0 1.541.073 3.458.219 5.75.166 2.291.25 3.812.25 4.562 0 2.813-1.136 4.219-3.407 4.219-1.437 0-2.968-.74-4.593-2.219-1.355-1.25-3.146-3.417-5.375-6.5-7.75-10.667-14.73-22.656-20.938-35.969-2.167 7.813-3.448 18.594-3.844 32.344-.166 5.917-.291 9.094-.375 9.531-.312 2-1.291 3-2.937 3s-2.708-1.093-3.188-3.281c-.187-.896-.281-2.635-.281-5.219 0-11.208 1.406-23.781 4.219-37.718.792-3.855 1.583-6.563 2.375-8.125.937-1.834 2.177-2.75 3.719-2.75.979 0 1.791.583 2.437 1.75.042.041.781 1.697 2.219 4.968 7.104 16.042 14.854 29.125 23.25 39.25v-2.312c0-13 .979-25.136 2.937-36.406.459-2.688.969-4.594 1.532-5.719.625-1.229 1.458-1.844 2.5-1.844 2 0 3 1.219 3 3.656zm56 0c0 .834-.292 2.979-.875 6.438-.709 4.208-1.23 7.927-1.563 11.156-.854 8.708-1.281 15.854-1.281 21.438 0 1.541.073 3.458.219 5.75.166 2.291.25 3.812.25 4.562 0 2.813-1.136 4.219-3.407 4.219-1.437 0-2.968-.74-4.593-2.219-1.355-1.25-3.146-3.417-5.375-6.5-7.75-10.667-14.73-22.656-20.938-35.969-2.167 7.813-3.448 18.594-3.844 32.344-.166 5.917-.291 9.094-.375 9.531-.312 2-1.291 3-2.937 3s-2.708-1.093-3.188-3.281c-.187-.896-.281-2.635-.281-5.219 0-11.208 1.406-23.781 4.219-37.718.792-3.855 1.583-6.563 2.375-8.125.937-1.834 2.177-2.75 3.719-2.75.979 0 1.791.583 2.437 1.75.042.041.781 1.697 2.219 4.968 7.104 16.042 14.854 29.125 23.25 39.25v-2.312c0-13 .979-25.136 2.937-36.406.459-2.688.969-4.594 1.532-5.719.625-1.229 1.458-1.844 2.5-1.844 2 0 3 1.219 3 3.656zm48.593 44.032c0 1.77-2.114 3.458-6.343 5.062-4.084 1.542-8.927 2.563-14.532 3.063-3.354.291-8.323.437-14.906.437-2.333 0-3.917-.083-4.75-.25-2.083-.396-3.125-1.292-3.125-2.687 0-.855.281-1.584.844-2.188.583-.583 1.281-.875 2.094-.875h2.875c1.02-5.062 1.531-15.75 1.531-32.062 0-.688-.042-4.49-.125-11.407-.688 0-1.396.011-2.125.032l-1.125.031c-2.188 0-3.281-.959-3.281-2.875 0-1.271.573-2.156 1.718-2.656 1.063-.438 2.886-.657 5.469-.657 10.813 0 19.448.979 25.906 2.938 4.313 1.312 6.469 2.844 6.469 4.594 0 .729-.281 1.395-.844 2-.541.583-1.135.875-1.781.875-.375 0-1.177-.25-2.406-.75-1.542-.646-2.854-1.094-3.938-1.344-2.833-.709-8.76-1.354-17.781-1.938 0 3.771-.042 9.75-.125 17.938 2.625.166 5.146.25 7.563.25 1.687 0 3.437-.063 5.25-.188 1.812-.125 2.791-.187 2.937-.187 2.25 0 3.375.958 3.375 2.875 0 1.5-.948 2.448-2.844 2.844-1.291.27-4.198.406-8.718.406-2.5 0-5.063-.063-7.688-.188-.208 9.563-.594 16.052-1.156 19.469h1.281c8.354 0 14.646-.625 18.875-1.875 1.146-.333 2.771-1.031 4.875-2.094 1.688-.854 2.927-1.281 3.719-1.281.75 0 1.406.271 1.969.813.562.541.843 1.166.843 1.875zm57.125 4.031c0 1.562-.833 3.073-2.5 4.531v-.062c-1.583 1.375-3.76 2.062-6.531 2.062-3.583 0-6.25-.625-8-1.875-.521-.375-1.167-1.01-1.937-1.906-1.25-1.438-1.969-2.25-2.157-2.438-6.604-6.979-11.145-11.073-13.625-12.281a145.778 145.778 0 0 1-3.218-1.219c-1.042-.437-1.563-1.229-1.563-2.375 0-1.958 1.656-3.062 4.969-3.312 3.562-.292 6.458-1.719 8.687-4.281 2.23-2.584 3.344-5.75 3.344-9.5 0-8.48-5.396-12.719-16.187-12.719h-.5c-2.688 11-4.032 22.833-4.032 35.5 0 2.187.063 4.489.188 6.906s.187 3.729.187 3.938c0 2.895-1 4.343-3 4.343-1.625 0-2.687-.989-3.187-2.968-.396-1.584-.594-4.823-.594-9.719 0-15.042 1.302-27.5 3.906-37.375-7.687 1.291-11.937 1.937-12.75 1.937-2.979 0-4.468-1.073-4.468-3.218 0-1.334.552-2.25 1.656-2.75.646-.271 1.469-.428 2.469-.469.854-.042 1.718-.073 2.593-.094.646-.062 3.334-.479 8.063-1.25 3.521-.583 6.552-.875 9.094-.875 15.479 0 23.218 6.146 23.218 18.438 0 3.895-1.073 7.5-3.218 10.812-2.146 3.292-5.146 5.875-9 7.75 3.02 2.292 5.989 4.969 8.906 8.031 3.458 3.625 5.229 5.469 5.312 5.532 1.063.937 2.813 1.406 5.25 1.406 1.167 0 1.907-.167 2.219-.5l2-2.125c.688-.625 1.344-.938 1.969-.938.667 0 1.239.292 1.719.875.479.584.718 1.313.718 2.188z"/>
    <path fill="#fff" d="M565.901 198.684l3.847-9.231-1.847-.769h-2v10zm-.75-.312l3.988-9.171-13.149-5.717-.822 14.314 9.983.574zm-9.656 51.594l9.036 4.283.009-.018.008-.018-9.053-4.247zm-16.281-26.313l9.924-1.229-19.403-1.957 9.479 3.186zm-8.188 20.781l-8.812-4.727-.008.015-.008.015 8.828 4.697zm-11.718 3.875l-8.107 5.855.004.006 8.103-5.861zm-4.407-9.218l-9.383 3.456.003.01.004.01 9.376-3.476zm-4.718-40.719h10v-11.05l-10.995 1.099.995 9.951zm-1.657.281l-2.075-9.782-.01.002-.01.002 2.095 9.778zm13.094-5.625l-3.89 9.213.044.018.044.018 3.802-9.249zm-2.469 5.813l-2.841 9.587.047.014.047.014 2.747-9.615zm-2.718-.594l.905-9.959-10.732-.976-.172 10.775 9.999.16zm-.125 7.812l-9.999-.16-.001.08v.08h10zm7.75 37.938l-8.841 4.674 7.52 14.22 9.424-13.035-8.103-5.859zm10.937-26.688l-9.559-2.935-.004.011 9.563 2.924zm2.188-8.781l-9.787-2.057-.001.006 9.788 2.051zm1.437-5.5l9.128 4.084.008-.018.008-.019-9.144-4.047zm5.438.25l9.562-2.927-.017-.056-.018-.055-9.527 3.038zm.437 8.25l9.996.294v-.008l-9.996-.286zm6.188 34.469l-9.156 4.022 9.684 22.043 8.783-22.417-9.311-3.648zm8.312-48.25l9.985.554.627-11.284-11.277.752.665 9.978zm-1.594.281l-2.169-9.762-.051.012-.052.012 2.272 9.738zm10.907-5.125l4.766-8.791-.03-.016-.031-.017-4.705 8.824zm-7.407 3.313c0-.962.195-1.931.576-2.828a6.615 6.615 0 0 1 1.239-1.933l14.621 13.646c2.051-2.198 3.564-5.245 3.564-8.885h-20zm1.815-4.761a6.863 6.863 0 0 1 2.033-1.475 7.682 7.682 0 0 1 3.34-.764v20c4.044 0 7.196-1.916 9.248-4.115l-14.621-13.646zm5.373-2.239a5.9 5.9 0 0 1 1.686.234l-5.747 19.156c1.203.361 2.572.61 4.061.61v-20zm1.686.234a3.962 3.962 0 0 1-.185-.059c-.008-.002.002.001.026.01l.051.02.081.032-7.693 18.462c.699.291 1.398.519 1.973.691l5.747-19.156zm-3.874-.766a10.01 10.01 0 0 1 3.144.509c.202.067.352.125.388.138.096.037.148.06.111.044-.052-.022-.178-.075-.405-.174l-7.975 18.341c.252.11.491.213.688.295.088.037.237.098.401.161a10.41 10.41 0 0 0 1.825.519c.241.044.931.167 1.823.167v-20zm-10.733 9.114c-1.338 23.283-4.488 38.888-8.726 47.92l18.106 8.495c5.929-12.635 9.217-31.426 10.587-55.267l-19.967-1.148zm-8.709 47.884c-.338.713-.362.477.208-.029.322-.286.85-.671 1.6-.98a6.551 6.551 0 0 1 2.478-.489v20c7.917 0 12.029-6.229 13.786-9.935l-18.072-8.567zm4.286-1.498c2.406 0 3.722 1.307 3.86 1.463.017.019-.504-.621-1.263-2.629-1.494-3.956-2.971-10.642-4.204-20.594l-19.848 2.458c1.288 10.402 2.993 18.982 5.342 25.203 1.164 3.081 2.73 6.257 4.999 8.82 2.39 2.7 6.125 5.279 11.114 5.279v-20zm-21.01-23.717c-3.302 9.823-5.808 16.047-7.521 19.24l17.624 9.455c2.579-4.808 5.532-12.438 8.855-22.323l-18.958-6.372zm-7.537 19.27c-.451.849-.84 1.473-1.152 1.916-.317.451-.499.631-.516.648-.021.019.233-.231.791-.498a5.939 5.939 0 0 1 2.549-.556v20c4.618 0 8.145-2.267 10.45-4.46 2.278-2.17 4.072-4.907 5.534-7.655l-17.656-9.395zm1.672 1.51c1.32 0 2.389.429 3.054.857.574.37.695.634.486.344l-16.205 11.722c2.338 3.232 6.486 7.077 12.665 7.077v-20zm3.544 1.207c-.533-.738-1.625-2.764-3.136-6.84l-18.753 6.953c1.656 4.466 3.5 8.585 5.676 11.597l16.213-11.71zm-3.129-6.819c-2.522-6.85-4.102-18.24-4.102-35.013h-20c0 17.435 1.566 31.691 5.335 41.925l18.767-6.912zm-4.102-35.013v-2.25h-20v2.25h20zm-10.995-12.201c-.941.094-1.896.271-2.737.45l4.15 19.564c.243-.051.416-.084.529-.103.121-.02.128-.018.048-.01l-1.99-19.901zm-2.757.454c-.165.035-.199.038-.138.029.034-.005.128-.018.269-.032.13-.012.381-.031.714-.031v20c1.417 0 2.758-.284 3.346-.41l-4.191-19.556zm.845-.034c.576 0 2.828.165 4.831 2.229 1.951 2.009 2.044 4.156 2.044 4.552h-20c0 2.541.615 6.298 3.607 9.38 3.045 3.137 6.859 3.839 9.518 3.839v-20zm6.875 6.781a7.577 7.577 0 0 1-1.873 4.958c-1.015 1.152-1.991 1.522-2.09 1.559-.137.052.076-.045.839-.141.727-.091 1.751-.157 3.124-.157v-20c-3.677 0-7.644.308-11.036 1.591-1.766.668-3.992 1.826-5.84 3.923a12.42 12.42 0 0 0-3.124 8.267h20zm0 6.219c2.4 0 3.408.327 3.579.4l7.78-18.425c-3.579-1.511-7.55-1.975-11.359-1.975v20zm3.667.436c.245.101-.428-.115-1.275-.99-1.033-1.068-2.11-2.936-2.11-5.353h20c0-7.691-6.376-11.072-9.011-12.155l-7.604 18.498zm-3.385-6.343c0-.175.015-2.174 1.806-4.17 1.976-2.202 4.355-2.486 5.194-2.486v20c2.838 0 6.717-.841 9.693-4.158 2.791-3.11 3.307-6.781 3.307-9.186h-20zm7-6.656c.345 0 .597.024.725.039.135.016.21.03.213.031.005.001-.032-.006-.118-.027a10.597 10.597 0 0 1-.354-.096l-5.495 19.231c1.146.327 3.044.822 5.029.822v-20zm.559-.025c-1.384-.411-3.013-.816-4.654-.965l-1.811 19.918c-.181-.017-.209-.033-.033.006.163.035.43.102.816.216l5.682-19.175zm-15.558 8.834l-.125 7.812 19.997.32.125-7.812-19.997-.32zm-.126 7.972c0 16.53 2.736 30.937 8.909 42.612l17.681-9.349c-4.16-7.867-6.59-18.751-6.59-33.263h-20zm25.853 43.797c4.301-5.949 8.34-16.356 12.397-29.623l-19.126-5.848c-4.11 13.441-7.362 20.826-9.478 23.753l16.207 11.718zm12.394-29.612c.847-2.76 1.648-6.003 2.415-9.665l-19.575-4.102c-.691 3.296-1.349 5.907-1.959 7.897l19.119 5.87zm2.414-9.659c.285-1.355.518-2.36.701-3.06.091-.348.156-.566.192-.682.048-.151.014-.017-.114.269l-18.256-8.168c-.877 1.961-1.549 4.927-2.096 7.527l19.573 4.114zm.795-3.51c-.174.394-.719 1.454-1.993 2.438a7.73 7.73 0 0 1-4.682 1.609v-20a12.27 12.27 0 0 0-7.541 2.561c-2.098 1.62-3.335 3.633-4.072 5.298l18.288 8.094zm-6.675 4.047c-.83 0-2.403-.214-3.994-1.37-1.598-1.161-2.3-2.607-2.565-3.436l19.055-6.076c-.723-2.266-2.149-4.79-4.737-6.67-2.581-1.875-5.408-2.448-7.759-2.448v20zm-6.593-4.917c-.12-.39-.141-.595-.124-.481.012.082.038.286.064.647.054.728.09 1.801.09 3.282h20c0-1.749-.041-3.353-.144-4.749-.09-1.225-.266-2.93-.762-4.553l-19.124 5.854zm.03 3.448c0 .397-.008.921-.027 1.589l19.992.572c.023-.79.035-1.516.035-2.161h-20zm-.027 1.581a67.53 67.53 0 0 0-.035 1.607h20v-.004l.005-.212c.004-.192.012-.458.022-.803l-19.992-.588zm-.035 1.607c0 13.742 2.248 26.217 7.063 37.178l18.311-8.044c-3.477-7.915-5.374-17.544-5.374-29.134h-20zm25.53 36.804c4.948-12.631 7.797-29.955 8.986-51.344l-19.969-1.109c-1.146 20.612-3.838 35.455-7.639 45.157l18.622 7.296zm-1.664-61.876c-1.156.077-2.359.333-3.098.497l4.339 19.524a19.853 19.853 0 0 1 .529-.109l.016-.003-.051.007a5.496 5.496 0 0 1-.405.04l-1.33-19.956zm-3.201.521c-.121.028-.125.024-.037.011.048-.007.141-.02.271-.031.127-.011.322-.023.57-.023v20c1.5 0 2.868-.277 3.741-.481l-4.545-19.476zm.804-.043c.624 0 2.905.183 4.914 2.275 1.937 2.016 2.023 4.156 2.023 4.537h-20c0 2.506.596 6.24 3.555 9.319 3.03 3.154 6.841 3.869 9.508 3.869v-20zm6.937 6.812a7.445 7.445 0 0 1-1.528 4.469c-.964 1.262-2.006 1.792-2.377 1.954-.367.16-.423.115.056.045.447-.065 1.168-.124 2.224-.124v-20c-3.211 0-6.972.304-10.282 1.749-1.768.772-3.856 2.063-5.518 4.239-1.762 2.308-2.575 5.006-2.575 7.668h20zm-1.625 6.344c1.718 0 2.332.31 2.357.324l9.411-17.648c-3.725-1.986-7.819-2.676-11.768-2.676v20zm2.296.291c.112.06-.481-.226-1.162-1.095-.794-1.014-1.478-2.55-1.478-4.383h20c0-6.699-4.79-10.458-7.827-12.104l-9.533 17.582zm26.079 49.74l-4.472-8.944-.037.019-.037.018 4.546 8.907zm-17 .344l3.681-9.298-.042-.017-.043-.016-3.596 9.331zm2.219-6l-2.971 9.549.049.015.048.014 2.874-9.578zm2.781.781l-2.06 9.786 10.875 2.289 1.133-11.055-9.948-1.02zm-2.219-45.312l9.537-3.009-2.536-8.038-8.352 1.138 1.351 9.909zm-3.156.844l3.328 9.429.065-.022.064-.024-3.457-9.383zm-3.812-.313l-7.728 6.347 7.728-6.347zm18.812-4.969l-4.287 9.035.01.004 4.277-9.039zm-.812 6.219l-3.053 9.523.017.005.017.005 3.019-9.533zm-4.313-1.187l2.118-9.774-16.348-3.542 4.619 16.077 9.611-2.761zm1.781 44.781l-9.934-1.145-1.707 14.818 14.356-4.049-2.715-9.624zm3.563-1.313l3.82 9.242.019-.008.019-.008-3.858-9.226zm4.375.063l-7.214 6.925.006.006 7.208-6.931zm-9.219 1.969c0-1.211.398-2.519 1.184-3.591.348-.475.693-.794.938-.988.241-.189.398-.268.406-.272l8.944 17.889c4.213-2.107 8.528-6.366 8.528-13.038h-20zm2.454-4.814c.085-.043-.137.084-.853.213-.705.127-1.727.226-3.132.226v20c4.371 0 9.043-.566 13.077-2.625l-9.092-17.814zm-3.985.439c-3.139 0-4.5-.372-4.788-.486l-7.361 18.596c3.711 1.469 7.996 1.89 12.149 1.89v-20zm-4.873-.519c-.222-.085.513.138 1.402 1.074 1.096 1.153 2.002 2.965 2.002 5.101h-20c0 7.726 6.204 11.254 9.404 12.487l7.192-18.662zm3.404 6.175c0 .306-.061 2.395-1.951 4.399-1.993 2.115-4.29 2.32-4.955 2.32v-20c-2.728 0-6.571.751-9.596 3.96-2.921 3.098-3.498 6.827-3.498 9.321h20zm-6.906 6.719c-.373 0-.655-.028-.817-.048a3.329 3.329 0 0 1-.309-.049c-.058-.012.023.002.28.083l5.942-19.098c-1.112-.345-3.027-.888-5.096-.888v20zm-.749.015c1.325.398 2.699.8 3.595.989l4.12-19.571c.122.025.16.037.059.011a18.02 18.02 0 0 1-.407-.111c-.384-.108-.919-.264-1.62-.474l-5.747 19.156zm15.603-7.777c.873-8.518 1.333-15.814 1.333-21.801h-20c0 5.054-.394 11.613-1.229 19.762l19.896 2.039zm1.333-21.801c0-9.824-1.279-19.033-3.963-27.54l-19.073 6.018c1.983 6.284 3.036 13.429 3.036 21.522h20zm-14.851-34.44c-1.843.252-3.624.765-5.262 1.369l6.914 18.767a9.31 9.31 0 0 1 .805-.262c.19-.051.267-.06.246-.057l-2.703-19.817zm-5.133 1.323c-.191.067-.337.116-.444.15-.11.035-.154.047-.143.044.008-.002.039-.011.092-.023a6.174 6.174 0 0 1 .774-.127 8.64 8.64 0 0 1 .955-.052v20c1.576 0 2.921-.363 3.368-.483a27.975 27.975 0 0 0 2.054-.65l-6.656-18.859zm1.234-.008c1.184 0 2.436.273 3.608.87a7.52 7.52 0 0 1 2.401 1.908l-15.455 12.694c2.096 2.552 5.368 4.528 9.446 4.528v-20zm6.009 2.778c1.219 1.483 1.554 3.107 1.554 4.16h-20c0 2.802.814 5.884 2.991 8.534l15.455-12.694zm1.554 4.16c0 1.101-.326 2.487-1.217 3.758-.829 1.183-1.756 1.708-2.107 1.874-.323.154-.32.087.25-.004.542-.086 1.387-.16 2.605-.16v-20c-3.651 0-7.828.384-11.442 2.102-1.939.922-4.058 2.391-5.681 4.706-1.686 2.404-2.408 5.112-2.408 7.724h20zm-.469 5.468c3.456 0 5.126.506 5.713.785l8.575-18.069c-4.331-2.055-9.327-2.716-14.288-2.716v20zm5.723.789c.287.136-.249-.048-.907-.87a6.184 6.184 0 0 1-1.316-3.794h20c0-7.264-5.103-11.464-9.222-13.414l-8.555 18.078zm-2.223-4.664c0-.273.013-2.331 1.729-4.455 2.045-2.533 4.785-3.107 6.302-3.107v20c2.831 0 6.555-.981 9.256-4.326 2.372-2.937 2.713-6.214 2.713-8.112h-20zm8.031-7.562a8.696 8.696 0 0 1 1.459.122c.165.03.238.051.177.036-.049-.013-.153-.04-.324-.091a31.395 31.395 0 0 1-.636-.194l-6.038 19.066c.711.226 1.427.439 2.086.606.32.081 1.717.455 3.276.455v-20zm.709-.117c-1.838-.589-3.598-1.08-5.247-1.438l-4.235 19.547c.85.184 1.965.484 3.377.937l6.105-19.046zm-16.976 11.097c1.891 6.581 2.861 13.626 2.861 21.176h20c0-9.283-1.196-18.197-3.639-26.699l-19.222 5.523zm2.861 21.176c0 4.859-.445 11.387-1.403 19.699l19.869 2.289c1-8.688 1.534-16.056 1.534-21.988h-20zm11.246 30.468c1.398-.394 3.026-1.017 4.668-1.695l-7.64-18.483c-1.484.613-2.23.865-2.457.929l5.429 19.249zm4.706-1.711c.343-.144.448-.168.366-.145a4.328 4.328 0 0 1-.452.099 7.208 7.208 0 0 1-1.241.102v-20c-2.725 0-5.2.995-6.389 1.492l7.716 18.452zm-1.327.056a7.441 7.441 0 0 1-2.894-.598 7.488 7.488 0 0 1-2.476-1.696l14.428-13.851a12.452 12.452 0 0 0-9.058-3.855v20zm-5.364-2.288a7.23 7.23 0 0 1-1.501-2.344 7.128 7.128 0 0 1-.51-2.618h20c0-3.281-1.21-6.443-3.573-8.9l-14.416 13.862zm59.927-48.056l-9.861-1.663-.001.003 9.862 1.66zm-1.563 11.156l-9.947-1.027-.003.026-.002.025 9.952.976zm-1.062 27.188l-9.98.635.003.045.003.045 9.974-.725zm-7.75 6.562l-6.783 7.348.025.024.026.023 6.732-7.395zm-5.375-6.5l8.104-5.859-.007-.009-.007-.01-8.09 5.878zm-20.938-35.969l9.063-4.226-11.456-24.565-7.243 26.119 9.636 2.672zm-3.844 32.344l-9.995-.288-.001.006 9.996.282zm-.375 9.531l-9.823-1.871-.031.163-.026.164 9.88 1.544zm-6.125-.281l-9.788 2.049.01.045.01.046 9.768-2.14zm3.938-42.937l-9.796-2.013-.003.017-.004.017 9.803 1.979zm2.375-8.125l-8.904-4.553-.008.016-.008.017 8.92 4.52zm6.156-1l-8.749 4.843.682 1.232.996.996 7.071-7.071zm2.219 4.968l-9.155 4.024.006.013.005.013 9.144-4.05zm23.25 39.25l-7.698 6.383 17.698 21.343v-27.726h-10zm2.937-38.718l9.853 1.711.002-.015.003-.015-9.858-1.681zm1.532-5.719l-8.914-4.533-.016.03-.015.031 8.945 4.472zm-4.5 1.812c0-.276.018-.363-.007-.103a29.65 29.65 0 0 1-.121.991c-.125.923-.325 2.207-.608 3.887l19.721 3.326c.526-3.119 1.015-6.233 1.015-8.101h-20zm-.737 4.778c-.733 4.357-1.287 8.294-1.648 11.789l19.894 2.054c.306-2.964.794-6.464 1.477-10.523l-19.723-3.32zm-1.653 11.84c-.87 8.873-1.329 16.376-1.329 22.414h20c0-5.129.395-11.918 1.233-20.462l-19.904-1.952zm-1.329 22.414c0 1.828.085 3.973.239 6.385l19.959-1.271c-.138-2.171-.198-3.86-.198-5.114h-20zm.245 6.475c.171 2.358.224 3.513.224 3.837h20c0-1.176-.115-3.062-.277-5.288l-19.947 1.451zm.224 3.837c0 .322-.108-1.291 1.368-3.118 1.805-2.236 4.185-2.663 5.225-2.663v20c3.311 0 7.395-1.13 10.336-4.773 2.61-3.233 3.071-6.955 3.071-9.446h-20zm6.593-5.781c1.039 0 1.778.274 2.123.44.312.151.311.216.015-.054l-13.463 14.79c2.525 2.298 6.365 4.824 11.325 4.824v-20zm2.189.433c-.582-.538-1.894-2.024-4.053-5.011l-16.208 11.718c2.299 3.18 4.57 6.027 6.696 7.989l13.565-14.696zm-4.067-5.03c-7.334-10.094-13.997-21.52-19.965-34.317l-18.126 8.453c6.449 13.828 13.744 26.38 21.911 37.62l16.18-11.756zm-38.664-32.763c-2.481 8.943-3.798 20.647-4.203 34.728l19.991.576c.387-13.419 1.631-23.278 3.484-29.959l-19.272-5.345zm-4.204 34.734a627.573 627.573 0 0 1-.215 6.709c-.03.772-.056 1.325-.077 1.687-.01.185-.017.273-.019.292-.013.16.009-.223.109-.746l19.647 3.742c.171-.899.219-1.938.23-2.137.031-.541.063-1.234.095-2.052.065-1.644.139-3.962.222-6.931l-19.992-.564zm-.259 8.269c.028-.177.28-1.683 1.767-3.202 1.721-1.758 3.821-2.254 5.176-2.254v20c3 0 6.413-.995 9.114-3.753 2.466-2.519 3.363-5.525 3.703-7.703l-19.76-3.088zm6.943-5.456c.71 0 1.626.122 2.619.523a7.355 7.355 0 0 1 2.522 1.689 6.3 6.3 0 0 1 1.191 1.69c.188.401.245.658.249.677l-19.537 4.28c.463 2.112 1.45 4.92 3.752 7.289 2.574 2.649 5.916 3.852 9.204 3.852v-20zm6.6 4.67c.044.211.047.288.033.158a12.765 12.765 0 0 1-.046-.624 52.151 52.151 0 0 1-.056-2.704h-20c0 2.454.062 5.205.493 7.268l19.576-4.098zm-.069-3.17c0-10.395 1.307-22.29 4.021-35.74l-19.605-3.957c-2.91 14.425-4.416 27.676-4.416 39.697h20zm4.014-35.706c.361-1.756.695-3.115.991-4.129a17.5 17.5 0 0 1 .371-1.146c.103-.277.154-.374.138-.343l-17.84-9.039c-1.446 2.854-2.446 6.714-3.251 10.632l19.591 4.025zm1.483-5.585c-.009.018-.358.71-1.325 1.425a6.576 6.576 0 0 1-3.859 1.273v-20c-6.568 0-10.643 4.326-12.623 8.197l17.807 9.105zm-5.184 2.698a7.75 7.75 0 0 1-4.489-1.44c-1.128-.81-1.656-1.666-1.823-1.967l17.498-9.687c-1.682-3.037-5.284-6.906-11.186-6.906v20zm-4.634-1.179a9.986 9.986 0 0 1-1.851-2.558c.073.16.196.432.377.837.357.801.892 2.011 1.609 3.642l18.31-8.047a750.576 750.576 0 0 0-1.657-3.749 99.981 99.981 0 0 0-.47-1.042c-.057-.125-.13-.28-.202-.43-.032-.064-.102-.208-.191-.377-.04-.075-.135-.254-.266-.472a9.966 9.966 0 0 0-1.517-1.947l-14.142 14.143zm.146 1.947c7.361 16.621 15.555 30.56 24.696 41.583l15.396-12.766c-7.651-9.226-14.957-21.454-21.805-36.916l-18.287 8.099zm42.394 35.2v-2.312h-20v2.312h20zm0-2.312c0-12.502.942-24.059 2.79-34.695l-19.705-3.423c-2.069 11.906-3.085 24.62-3.085 38.118h20zm2.795-34.725c.195-1.145.377-1.974.529-2.54.167-.625.229-.668.089-.388l-17.889-8.944c-1.271 2.542-1.967 5.711-2.444 8.509l19.715 3.363zm.587-2.868c-.169.333-.703 1.262-1.884 2.133a7.691 7.691 0 0 1-4.529 1.491v-20c-6.045 0-9.729 3.997-11.414 7.311l17.827 9.065zm-6.413 3.624c-1.121 0-3.589-.437-5.481-2.743a7.012 7.012 0 0 1-1.353-2.562c-.166-.607-.166-.997-.166-1.039h20c0-2.332-.439-5.94-3.02-9.085-2.891-3.524-6.86-4.571-9.98-4.571v20zm58.125.094l-9.861-1.663-.001.003 9.862 1.66zm-1.563 11.156l-9.947-1.027-.003.026-.002.025 9.952.976zm-1.062 27.188l-9.98.635.003.045.003.045 9.974-.725zm-7.75 6.562l-6.783 7.348.025.024.026.023 6.732-7.395zm-5.375-6.5l8.104-5.859-.007-.009-.007-.01-8.09 5.878zm-20.938-35.969l9.063-4.226-11.456-24.565-7.243 26.119 9.636 2.672zm-3.844 32.344l-9.995-.288-.001.006 9.996.282zm-.375 9.531l-9.823-1.871-.031.163-.026.164 9.88 1.544zm-6.125-.281l-9.788 2.049.01.045.01.046 9.768-2.14zm3.938-42.937l-9.796-2.013-.003.017-.004.017 9.803 1.979zm2.375-8.125l-8.904-4.553-.008.016-.008.017 8.92 4.52zm6.156-1l-8.749 4.843.682 1.232.996.996 7.071-7.071zm2.219 4.968l-9.155 4.024.006.013.005.013 9.144-4.05zm23.25 39.25l-7.698 6.383 17.698 21.343v-27.726h-10zm2.937-38.718l9.853 1.711.002-.015.003-.015-9.858-1.681zm1.532-5.719l-8.914-4.533-.016.03-.015.031 8.945 4.472zm-4.5 1.812c0-.276.018-.363-.007-.103a29.65 29.65 0 0 1-.121.991c-.125.923-.325 2.207-.608 3.887l19.721 3.326c.526-3.119 1.015-6.233 1.015-8.101h-20zm-.737 4.778c-.733 4.357-1.287 8.294-1.648 11.789l19.894 2.054c.306-2.964.794-6.464 1.477-10.523l-19.723-3.32zm-1.653 11.84c-.87 8.873-1.329 16.376-1.329 22.414h20c0-5.129.395-11.918 1.233-20.462l-19.904-1.952zm-1.329 22.414c0 1.828.085 3.973.239 6.385l19.959-1.271c-.138-2.171-.198-3.86-.198-5.114h-20zm.245 6.475c.171 2.358.224 3.513.224 3.837h20c0-1.176-.115-3.062-.277-5.288l-19.947 1.451zm.224 3.837c0 .322-.108-1.291 1.368-3.118 1.805-2.236 4.185-2.663 5.225-2.663v20c3.311 0 7.395-1.13 10.336-4.773 2.61-3.233 3.071-6.955 3.071-9.446h-20zm6.593-5.781c1.039 0 1.778.274 2.123.44.312.151.311.216.015-.054l-13.463 14.79c2.525 2.298 6.365 4.824 11.325 4.824v-20zm2.189.433c-.582-.538-1.894-2.024-4.053-5.011l-16.208 11.718c2.299 3.18 4.57 6.027 6.696 7.989l13.565-14.696zm-4.067-5.03c-7.334-10.094-13.997-21.52-19.965-34.317l-18.126 8.453c6.449 13.828 13.744 26.38 21.911 37.62l16.18-11.756zm-38.664-32.763c-2.481 8.943-3.798 20.647-4.203 34.728l19.991.576c.387-13.419 1.631-23.278 3.484-29.959l-19.272-5.345zm-4.204 34.734a627.573 627.573 0 0 1-.215 6.709c-.03.772-.056 1.325-.077 1.687-.01.185-.017.273-.019.292-.013.16.009-.223.109-.746l19.647 3.742c.171-.899.219-1.938.23-2.137.031-.541.063-1.234.095-2.052.065-1.644.139-3.962.222-6.931l-19.992-.564zm-.259 8.269c.028-.177.28-1.683 1.767-3.202 1.721-1.758 3.821-2.254 5.176-2.254v20c3 0 6.413-.995 9.114-3.753 2.466-2.519 3.363-5.525 3.703-7.703l-19.76-3.088zm6.943-5.456c.71 0 1.626.122 2.619.523a7.355 7.355 0 0 1 2.522 1.689 6.3 6.3 0 0 1 1.191 1.69c.188.401.245.658.249.677l-19.537 4.28c.463 2.112 1.45 4.92 3.752 7.289 2.574 2.649 5.916 3.852 9.204 3.852v-20zm6.6 4.67c.044.211.047.288.033.158a12.765 12.765 0 0 1-.046-.624 52.151 52.151 0 0 1-.056-2.704h-20c0 2.454.062 5.205.493 7.268l19.576-4.098zm-.069-3.17c0-10.395 1.307-22.29 4.021-35.74l-19.605-3.957c-2.91 14.425-4.416 27.676-4.416 39.697h20zm4.014-35.706c.361-1.756.695-3.115.991-4.129.146-.502.272-.877.372-1.146.102-.277.153-.374.137-.343l-17.84-9.039c-1.446 2.854-2.446 6.714-3.251 10.632l19.591 4.025zm1.483-5.585c-.009.018-.358.71-1.325 1.425a6.576 6.576 0 0 1-3.859 1.273v-20c-6.568 0-10.643 4.326-12.623 8.197l17.807 9.105zm-5.184 2.698a7.75 7.75 0 0 1-4.489-1.44c-1.128-.81-1.656-1.666-1.823-1.967l17.498-9.687c-1.682-3.037-5.284-6.906-11.186-6.906v20zm-4.634-1.179a9.986 9.986 0 0 1-1.851-2.558c.073.16.196.432.377.837.357.801.892 2.011 1.609 3.642l18.31-8.047a750.576 750.576 0 0 0-1.657-3.749c-.189-.423-.349-.778-.47-1.042-.057-.125-.13-.28-.202-.43-.032-.064-.102-.208-.191-.377-.04-.075-.135-.254-.266-.472a9.966 9.966 0 0 0-1.517-1.947l-14.142 14.143zm.146 1.947c7.361 16.621 15.555 30.56 24.696 41.583l15.396-12.766c-7.651-9.226-14.957-21.454-21.805-36.916l-18.287 8.099zm42.394 35.2v-2.312h-20v2.312h20zm0-2.312c0-12.502.942-24.059 2.79-34.695l-19.705-3.423c-2.069 11.906-3.085 24.62-3.085 38.118h20zm2.795-34.725c.195-1.145.377-1.974.529-2.54.167-.625.229-.668.089-.388l-17.889-8.944c-1.271 2.542-1.967 5.711-2.444 8.509l19.715 3.363zm.587-2.868c-.169.333-.703 1.262-1.884 2.133a7.691 7.691 0 0 1-4.529 1.491v-20c-6.045 0-9.729 3.997-11.414 7.311l17.827 9.065zm-6.413 3.624c-1.121 0-3.589-.437-5.481-2.743a7.012 7.012 0 0 1-1.353-2.562c-.166-.607-.166-.997-.166-1.039h20c0-2.332-.439-5.94-3.02-9.085-2.891-3.524-6.86-4.571-9.98-4.571v20zm45.25 42.75l3.532 9.355.007-.002.007-.003-3.546-9.35zm-14.532 3.063l.867 9.962.011-.001.011-.001-.889-9.96zm-19.656.187l1.961-9.806-.047-.009-.047-.009-1.867 9.824zm-2.281-4.875l-7.071-7.071-.126.126-.122.131 7.319 6.814zm4.969-.875v10h8.184l1.618-8.023-9.802-1.977zm1.406-43.469l9.999-.12-.119-9.88h-9.88v10zm-4.813-5.468l-3.807-9.247-.097.039-.095.042 3.999 9.166zm31.375 2.281l2.912-9.567-.01-.003-2.902 9.57zm5.625 6.594l-7.319-6.815-.009.01 7.328 6.805zm-4.187.125l-3.864 9.223.048.02.048.019 3.768-9.262zm-3.938-1.344l-2.425 9.701.088.022.089.021 2.248-9.744zm-17.781-1.938l.645-9.979-10.645-.688v10.667h10zm-.125 17.938l-9.999-.102-.097 9.481 9.462.601.634-9.98zm16.281 5.594l-2.043-9.789-.009.001 2.052 9.788zm-16.406.218l.476-9.988-10.25-.488-.224 10.258 9.998.218zm-1.156 19.469l-9.867-1.624-1.914 11.624h11.781v-10zm20.156-1.875l-2.793-9.602-.021.006-.02.006 2.834 9.59zm4.875-2.094l4.508 8.927.008-.005-4.516-8.922zm-3.469 1.407c0-1.653.518-2.998 1.072-3.905.509-.831 1.009-1.242 1.105-1.318.111-.089.037-.011-.351.19-.373.194-.93.447-1.716.745l7.093 18.7c2.526-.958 5.216-2.221 7.449-4.003 2.158-1.722 5.348-5.156 5.348-10.409h-20zm.124-4.293c-3.029 1.144-6.941 2.016-11.887 2.457l1.777 19.921c6.262-.559 12.038-1.728 17.175-3.668l-7.065-18.71zm-11.865 2.455c-2.91.253-7.528.4-14.04.4v20c6.655 0 11.974-.145 15.773-.475l-1.733-19.925zm-14.04.4c-1.065 0-1.856-.019-2.412-.049-.275-.014-.45-.029-.543-.039-.11-.011-.033-.008.166.032l-3.922 19.612c1.944.389 4.481.444 6.711.444v-20zm-2.883-.074c.002 0 .054.01.148.037.093.027.244.075.438.155a6.439 6.439 0 0 1 1.724 1.081 7.794 7.794 0 0 1 1.997 2.679 7.729 7.729 0 0 1 .701 3.185h-20c0 3.557 1.491 6.918 4.261 9.3 2.382 2.049 5.091 2.849 6.998 3.211l3.733-19.648zm5.008 7.137a6.92 6.92 0 0 1-1.837 4.626l-14.638-13.628c-2.351 2.525-3.525 5.716-3.525 9.002h20zm-2.085 4.883a7.014 7.014 0 0 1-2.254 1.499 7.09 7.09 0 0 1-2.723.555v-20c-3.51 0-6.739 1.378-9.165 3.804l14.142 14.142zm-4.977 2.054h2.875v-20h-2.875v20zm12.677-8.023c1.254-6.217 1.729-17.936 1.729-34.039h-20c0 16.521-.546 26.177-1.334 30.085l19.605 3.954zm1.729-34.039c0-.767-.043-4.663-.126-11.527l-19.998.241c.084 6.969.124 10.677.124 11.286h20zm-10.125-21.407c-.788 0-1.592.012-2.411.036l.571 19.991c.64-.018 1.253-.027 1.84-.027v-20zm-2.411.036l-.82.023-.2.005-.024.001h-.009H710.147l.043-.001.149-.001v20c.211 0 .851-.02 1.41-.036l-.571-19.991zm-.839.027c.147 0 2.125.003 4.129 1.76 2.257 1.977 2.59 4.413 2.59 5.365h-20c0 2.868.879 6.742 4.23 9.677 3.098 2.715 6.717 3.198 9.051 3.198v-20zm6.719 7.125c0 .893-.217 2.334-1.175 3.815-.966 1.492-2.22 2.307-3.107 2.694l-7.999-18.331c-2.033.887-4.147 2.394-5.685 4.772-1.532 2.367-2.034 4.886-2.034 7.05h20zm-4.474 6.59a4.196 4.196 0 0 1-.65.217c-.048.011.009-.004.198-.027.393-.047 1.073-.093 2.113-.093v-20c-2.661 0-6.236.158-9.276 1.41l7.615 18.493zm1.661.097c10.345 0 17.878.953 23.005 2.507l5.803-19.139c-7.79-2.362-17.528-3.368-28.808-3.368v20zm22.995 2.505c.797.242 1.354.453 1.717.613.381.167.419.221.256.106-.144-.103-.749-.551-1.354-1.472a7.72 7.72 0 0 1-1.239-4.22h20c0-5.524-3.517-8.974-5.827-10.615-2.36-1.676-5.162-2.764-7.73-3.546l-5.823 19.134zm-.62-4.973c0-.96.193-1.934.576-2.841a6.754 6.754 0 0 1 1.261-1.974l14.638 13.629c2.041-2.192 3.525-5.218 3.525-8.814h-20zm1.828-4.805a7.094 7.094 0 0 1 2.068-1.515 7.915 7.915 0 0 1 3.479-.805v20c4.052 0 7.148-1.959 9.109-4.071l-14.656-13.609zm5.547-2.32c.487 0 .877.039 1.126.071a6.925 6.925 0 0 1 .967.194 4.044 4.044 0 0 1-.194-.068 21.395 21.395 0 0 1-.537-.21l-7.536 18.525a29.7 29.7 0 0 0 2.316.847c.472.147 2.027.641 3.858.641v-20zm1.458.026c-1.832-.767-3.717-1.44-5.553-1.864l-4.497 19.488c.33.076 1.07.299 2.322.823l7.728-18.447zm-5.376-1.822c-3.864-.966-10.716-1.643-19.562-2.215l-1.29 19.958c9.196.595 14.198 1.21 16.001 1.66l4.851-19.403zm-30.207 7.764c0 3.717-.041 9.653-.124 17.836l19.999.204c.083-8.192.125-14.215.125-18.04h-20zm9.241 27.918c2.818.179 5.551.27 8.197.27v-20c-2.188 0-4.497-.076-6.929-.23l-1.268 19.96zm8.197.27a86.77 86.77 0 0 0 5.938-.211l-1.376-19.953c-1.601.11-3.121.164-4.562.164v20zm5.938-.211a393.22 393.22 0 0 1 2.042-.138l.496-.03.058-.003-.072.003c-.026 0-.132.004-.275.004v-20c-.6 0-2.14.109-3.625.211l1.376 19.953zm2.249-.164c-.059 0-1.969.021-3.953-1.669-2.291-1.952-2.672-4.416-2.672-5.456h20c0-2.957-.943-6.859-4.359-9.769-3.109-2.648-6.706-3.106-9.016-3.106v20zm-6.625-7.125c0-1.558.586-3.603 2.218-5.235 1.386-1.387 2.743-1.679 2.895-1.71l4.087 19.577c2.048-.427 4.826-1.391 7.16-3.725 2.58-2.58 3.64-5.85 3.64-8.907h-20zm5.104-6.944c.198-.041-.163.038-1.562.103-1.238.058-2.925.091-5.104.091v20c4.241 0 8.263-.094 10.771-.619l-4.105-19.575zm-6.666.194c-2.334 0-4.738-.059-7.212-.176l-.952 19.977c2.776.132 5.497.199 8.164.199v-20zm-17.686 9.594c-.209 9.638-.595 15.446-1.025 18.063l19.734 3.248c.694-4.216 1.08-11.388 1.287-20.875l-19.996-.436zm8.842 29.687h1.281v-20h-1.281v20zm1.281 0c8.619 0 16.072-.619 21.71-2.285l-5.669-19.18c-2.821.834-7.952 1.465-16.041 1.465v20zm21.668-2.273c2.063-.6 4.358-1.642 6.59-2.769l-9.015-17.853c-.925.466-1.664.812-2.236 1.058-.283.122-.505.21-.671.272a6.22 6.22 0 0 1-.189.067l-.065.021 5.586 19.204zm6.598-2.774a13.136 13.136 0 0 1 .867-.402l.052-.02.013-.004.004-.002h0l-.004.002-.015.004-.061.019a5.674 5.674 0 0 1-.798.151 7.29 7.29 0 0 1-.855.049v-20c-1.994 0-3.707.496-4.781.866-1.194.411-2.365.942-3.454 1.493l9.032 17.844zm-.797-.203a7.258 7.258 0 0 1-2.76-.553 7.092 7.092 0 0 1-2.208-1.431l13.873-14.407c-2.341-2.254-5.452-3.609-8.905-3.609v20zm-4.968-1.984a7.206 7.206 0 0 1-1.55-2.225 7.598 7.598 0 0 1-.67-3.103h20c0-3.719-1.608-6.865-3.907-9.079l-13.873 14.407zm62.405 3.234h-10v22.038l16.585-14.512-6.585-7.526zm0-.062h10v-21.929l-16.556 14.378 6.556 7.551zm-14.531.187l-5.843 8.115.015.011.016.011 5.812-8.137zm-1.937-1.906l7.58-6.523-.017-.019-.017-.02-7.546 6.562zm-2.157-2.438l-7.263 6.874.095.1.097.097 7.071-7.071zm-13.625-12.281l4.382-8.989-.465-.226-.485-.178-3.432 9.393zm-3.218-1.219l-3.873 9.22.11.046.112.044 3.651-9.31zm3.406-5.687l.752 9.971.032-.002.032-.003-.816-9.966zm8.687-4.281l7.545 6.563.013-.015.013-.015-7.571-6.533zm-13.343-22.219v-10h-7.851l-1.864 7.626 9.715 2.374zm-9.844 47.719l-9.702 2.425.003.012.003.012 9.696-2.449zm3.312-47.094l9.67 2.55 3.95-14.979-15.277 2.567 1.657 9.862zm-15.562-4.031l-3.867-9.222-.13.054-.128.058 4.125 9.11zm2.469-.469l.416 9.991.035-.001.036-.002-.487-9.988zm2.593-.094l.238 9.997.364-.008.362-.035-.964-9.954zm8.063-1.25l1.609 9.87.012-.002.013-.002-1.634-9.866zm29.094 28.375l8.377 5.461.008-.012.008-.012-8.393-5.437zm-9 7.75l-4.375-8.992-14.638 7.121 12.969 9.838 6.044-7.967zm8.906 8.031l-7.242 6.897.006.006 7.236-6.903zm5.312 5.532l6.617-7.499-.299-.263-.318-.238-6 8zm7.469.906l-7.282-6.854-.007.007-.006.007 7.295 6.84zm2-2.125l-6.727-7.4-.288.262-.267.284 7.282 6.854zm-5.594 2.125c0-1.079.307-1.96.62-2.526.278-.505.49-.639.295-.469l13.17 15.052c2.902-2.539 5.915-6.566 5.915-12.057h-20zm17.5 4.531v-.062h-20v.062h20zm-16.556-7.613c.153-.133.309-.238.449-.315a1.54 1.54 0 0 1 .276-.123c.068-.022-.126.051-.7.051v20c4.394 0 9.169-1.109 13.088-4.512l-13.113-15.101zm.025-.387c-1.244 0-2.008-.112-2.405-.205-.397-.093-.216-.117.217.193l-11.624 16.274c4.242 3.03 9.402 3.738 13.812 3.738v-20zm-2.157.01c.155.111.253.194.29.226.039.033.041.038.005.003a9.542 9.542 0 0 1-.495-.543l-15.16 13.045c.931 1.083 2.187 2.429 3.674 3.499l11.686-16.23zm-.234-.353c-1.085-1.248-2.125-2.441-2.632-2.947l-14.142 14.142c-.148-.148-.218-.23-.098-.098a251.754 251.754 0 0 1 1.78 2.027l15.092-13.124zm-2.439-2.749c-3.394-3.587-6.382-6.565-8.928-8.859-2.332-2.102-4.977-4.27-7.579-5.538l-8.763 17.978c-.124-.06.742.424 2.952 2.415 1.996 1.8 4.581 4.358 7.791 7.751l14.527-13.747zm-17.457-14.801c-1.011-.369-2.01-.748-3-1.135l-7.301 18.619c1.136.445 2.282.879 3.437 1.302l6.864-18.786zm-2.778-1.046c.951.4 2.284 1.242 3.31 2.802 1.02 1.55 1.255 3.076 1.255 4.043h-20c0 2.114.496 4.608 2.037 6.95 1.547 2.351 3.66 3.808 5.653 4.645l7.745-18.44zm4.565 6.845c0 .961-.216 2.196-.893 3.449a7.233 7.233 0 0 1-2.318 2.575c-1.259.839-2.024.708-1.068.635l-1.505-19.943c-2.356.178-5.605.723-8.521 2.667-3.555 2.37-5.695 6.229-5.695 10.617h20zm-4.215 6.654c6.012-.492 11.377-3.041 15.416-7.684l-15.089-13.127c-.42.482-.847.787-1.959.878l1.632 19.933zm15.442-7.714c3.956-4.584 5.773-10.14 5.773-16.033h-20c0 1.606-.412 2.383-.915 2.966l15.142 13.067zm5.773-16.033c0-6.51-2.193-12.943-7.869-17.403-5.216-4.099-11.885-5.316-18.318-5.316v20c4.358 0 5.783.902 5.962 1.043.013.01-.012-.031.008.017.045.107.217.584.217 1.659h20zm-26.187-22.719h-.5v20h.5v-20zm-10.215 7.626c-2.898 11.863-4.317 24.5-4.317 37.874h20c0-11.96 1.269-22.989 3.746-33.127l-19.429-4.747zm-4.317 37.874c0 2.376.068 4.852.201 7.423l19.974-1.034a122.875 122.875 0 0 1-.175-6.389h-20zm.201 7.423a739.93 739.93 0 0 1 .171 3.468l.006.145c.001.056-.003-.042-.003-.192h20c0-.549-.088-2.277-.2-4.455l-19.974 1.034zm.174 3.421c0 .606-.16-.713 1.022-2.426a7.618 7.618 0 0 1 2.944-2.508c1.226-.592 2.327-.723 3.034-.723v20c3.765 0 7.834-1.573 10.479-5.403 2.182-3.16 2.521-6.651 2.521-8.94h-20zm7-5.657c1.391 0 3.255.501 4.8 1.94 1.34 1.248 1.67 2.492 1.708 2.642l-19.391 4.899c.538 2.129 1.65 4.857 4.052 7.095 2.608 2.428 5.816 3.424 8.831 3.424v-20zm6.514 4.606c.034.134-.074-.319-.165-1.801-.082-1.343-.13-3.157-.13-5.492h-20c0 4.682.148 9.167.892 12.144l19.403-4.851zm-.295-7.293c0-14.546 1.268-26.074 3.576-34.825l-19.339-5.1c-2.901 10.998-4.237 24.387-4.237 39.925h20zm-7.751-47.237c-3.826.643-6.75 1.117-8.798 1.428-1.029.157-1.788.264-2.306.331-.761.097-.534.04.011.04v20c1.363 0 3.59-.338 5.3-.598a627.59 627.59 0 0 0 9.107-1.477l-3.314-19.724zm-11.093 1.799c-.589 0 .77-.16 2.493 1.081a7.462 7.462 0 0 1 2.393 2.909c.537 1.161.646 2.177.646 2.792h-20c0 3.668 1.453 7.777 5.272 10.528 3.213 2.314 6.806 2.69 9.196 2.69v-20zm5.532 6.782c0 .707-.153 2.031-1.02 3.471-.905 1.503-2.159 2.417-3.199 2.888l-8.25-18.219c-2.145.971-4.227 2.594-5.684 5.013-1.419 2.356-1.847 4.806-1.847 6.847h20zm-4.477 6.471a4.555 4.555 0 0 1-.9.283c-.149.028-.186.022-.082.018l-.833-19.983c-1.719.072-3.817.357-5.919 1.239l7.734 18.443zm-.911.298a92.35 92.35 0 0 1 2.344-.085l-.476-19.994c-.956.023-1.904.057-2.843.103l.975 19.976zm3.07-.128c1.065-.104 4.215-.602 8.708-1.334l-3.218-19.74c-2.355.384-4.18.676-5.486.879-1.458.226-1.96.29-1.931.288l1.927 19.907zm8.733-1.338c3.179-.527 5.635-.741 7.46-.741v-20c-3.259 0-6.865.369-10.729 1.01l3.269 19.731zm7.46-.741c6.684 0 9.849 1.372 11.195 2.441.907.719 2.023 2.084 2.023 5.997h20c0-8.379-2.753-16.234-9.586-21.66-6.393-5.077-14.837-6.778-23.632-6.778v20zm13.218 8.438c0 1.939-.5 3.659-1.611 5.375l16.786 10.874c3.18-4.909 4.825-10.398 4.825-16.249h-20zm-1.596 5.351c-1.067 1.637-2.62 3.062-4.997 4.219l8.749 17.984c5.331-2.593 9.779-6.335 13.003-11.281l-16.755-10.922zm-6.666 21.178c2.548 1.933 5.12 4.243 7.708 6.961l14.483-13.793c-3.245-3.407-6.61-6.452-10.104-9.102l-12.087 15.934zm7.714 6.967c1.732 1.815 3.048 3.192 3.945 4.126.447.465.802.833 1.056 1.094a32.13 32.13 0 0 0 .553.557 8.875 8.875 0 0 0 .432.398c.073.063.282.243.562.454l12-16a9.369 9.369 0 0 1 .761.632c.082.075.142.134.163.154l.055.054-.189-.194c-.209-.215-.529-.546-.968-1.003-.873-.91-2.171-2.267-3.899-4.078l-14.471 13.806zm5.932 6.127c3.814 3.365 8.6 3.908 11.866 3.908v-20c-.625 0-.755-.065-.553-.011.214.057 1.016.309 1.92 1.106l-13.233 14.997zm11.866 3.908c.973 0 2.261-.062 3.628-.37 1.162-.262 3.727-.987 5.886-3.291l-14.59-13.679a8.974 8.974 0 0 1 2.688-1.973 7.827 7.827 0 0 1 1.62-.568c.628-.141.962-.119.768-.119v20zm9.501-3.647l.5-.531.5-.531 1-1.063-14.564-13.707-.5.531-.5.532-1 1.062 14.564 13.707zm1.445-1.579c-.277.252-1.922 1.663-4.758 1.663v-20c-4.086 0-7.043 2.036-8.696 3.538l13.454 14.799zm-4.758 1.663a7.985 7.985 0 0 1-3.607-.869 7.541 7.541 0 0 1-2.402-1.908l15.455-12.695c-2.096-2.551-5.368-4.528-9.446-4.528v20zm-6.009-2.777c-1.218-1.484-1.554-3.107-1.554-4.16h20c0-2.803-.814-5.885-2.991-8.535l-15.455 12.695z"/>
    <path fill="url(#d)" d="M570.901 196.216c0 .75-.291 1.437-.875 2.062-.583.625-1.229.938-1.937.938-.375 0-.771-.063-1.188-.188-.416-.125-.75-.24-1-.344-.02 0-.27-.104-.75-.312-1.354 23.562-4.573 40.76-9.656 51.594-1.333 2.812-2.917 4.218-4.75 4.218-5.167 0-9.01-10.177-11.531-30.531-3.313 9.854-6.042 16.781-8.188 20.781-2.416 4.542-4.802 6.813-7.156 6.813-1.625 0-3.146-.979-4.562-2.938-1.355-1.875-2.823-4.948-4.407-9.218-3.145-8.542-4.718-21.365-4.718-38.469v-2.25c-.417.041-.969.135-1.657.281-.583.125-1 .188-1.25.188-2.083 0-3.125-1.073-3.125-3.219 0-2.521 3.334-3.781 10-3.781 3.105 0 5.594.395 7.469 1.187 1.875.771 2.813 1.74 2.813 2.906 0 2.229-1 3.344-3 3.344-.5 0-1.261-.146-2.282-.437-1.125-.334-2.031-.532-2.718-.594l-.125 7.812c0 15.521 2.583 28.167 7.75 37.938 3.208-4.438 6.854-13.334 10.937-26.688.729-2.375 1.458-5.302 2.188-8.781.604-2.875 1.083-4.708 1.437-5.5.563-1.271 1.386-1.906 2.469-1.906 1.521 0 2.51.719 2.969 2.156.312 1.021.468 3.146.468 6.375 0 .521-.01 1.146-.031 1.875a63.23 63.23 0 0 0-.031 1.313c0 12.666 2.073 23.718 6.219 33.156 4.375-11.167 7.145-27.25 8.312-48.25-.312.021-.844.114-1.594.281-.625.146-1.114.219-1.468.219-2.042 0-3.063-1.063-3.063-3.188 0-2.437 2.792-3.656 8.375-3.656 2.833 0 5.188.5 7.063 1.5 1.729.938 2.593 2.042 2.593 3.313zm21.719 51.125c0 1.729-1 3.093-3 4.093-2 1.021-4.844 1.532-8.531 1.532-3.646 0-6.469-.396-8.469-1.188-2-.771-3-1.823-3-3.156 0-2.188 1.031-3.281 3.094-3.281.479 0 1.187.145 2.125.437 1.458.438 2.385.698 2.781.781.854-8.333 1.281-15.26 1.281-20.781 0-8.958-1.166-17.135-3.5-24.531-.916.125-1.968.406-3.156.844-1.062.375-1.76.562-2.094.562-.666 0-1.239-.292-1.718-.875-.48-.583-.719-1.312-.719-2.187 0-3.021 3.177-4.532 9.531-4.532 4.208 0 7.542.584 10 1.75 2.333 1.104 3.5 2.563 3.5 4.375 0 1.625-.656 2.438-1.969 2.438-.312 0-1.093-.198-2.343-.594-1.625-.521-3.063-.917-4.313-1.187 2.167 7.541 3.25 15.52 3.25 23.937 0 5.396-.489 12.344-1.469 20.844.813-.229 2-.667 3.563-1.313 1.146-.479 1.989-.718 2.531-.718.729 0 1.344.26 1.844.781.521.541.781 1.198.781 1.969zm52.813-49.532c0 .834-.292 2.979-.875 6.438-.709 4.208-1.23 7.927-1.563 11.156-.854 8.708-1.281 15.854-1.281 21.438 0 1.541.073 3.458.219 5.75.166 2.291.25 3.812.25 4.562 0 2.813-1.136 4.219-3.407 4.219-1.437 0-2.968-.74-4.593-2.219-1.355-1.25-3.146-3.417-5.375-6.5-7.75-10.667-14.73-22.656-20.938-35.969-2.167 7.813-3.448 18.594-3.844 32.344-.166 5.917-.291 9.094-.375 9.531-.312 2-1.291 3-2.937 3s-2.708-1.093-3.188-3.281c-.187-.896-.281-2.635-.281-5.219 0-11.208 1.406-23.781 4.219-37.718.792-3.855 1.583-6.563 2.375-8.125.937-1.834 2.177-2.75 3.719-2.75.979 0 1.791.583 2.437 1.75.042.041.781 1.697 2.219 4.968 7.104 16.042 14.854 29.125 23.25 39.25v-2.312c0-13 .979-25.136 2.937-36.406.459-2.688.969-4.594 1.532-5.719.625-1.229 1.458-1.844 2.5-1.844 2 0 3 1.219 3 3.656zm56 0c0 .834-.292 2.979-.875 6.438-.709 4.208-1.23 7.927-1.563 11.156-.854 8.708-1.281 15.854-1.281 21.438 0 1.541.073 3.458.219 5.75.166 2.291.25 3.812.25 4.562 0 2.813-1.136 4.219-3.407 4.219-1.437 0-2.968-.74-4.593-2.219-1.355-1.25-3.146-3.417-5.375-6.5-7.75-10.667-14.73-22.656-20.938-35.969-2.167 7.813-3.448 18.594-3.844 32.344-.166 5.917-.291 9.094-.375 9.531-.312 2-1.291 3-2.937 3s-2.708-1.093-3.188-3.281c-.187-.896-.281-2.635-.281-5.219 0-11.208 1.406-23.781 4.219-37.718.792-3.855 1.583-6.563 2.375-8.125.937-1.834 2.177-2.75 3.719-2.75.979 0 1.791.583 2.437 1.75.042.041.781 1.697 2.219 4.968 7.104 16.042 14.854 29.125 23.25 39.25v-2.312c0-13 .979-25.136 2.937-36.406.459-2.688.969-4.594 1.532-5.719.625-1.229 1.458-1.844 2.5-1.844 2 0 3 1.219 3 3.656zm48.593 44.032c0 1.77-2.114 3.458-6.343 5.062-4.084 1.542-8.927 2.563-14.532 3.063-3.354.291-8.323.437-14.906.437-2.333 0-3.917-.083-4.75-.25-2.083-.396-3.125-1.292-3.125-2.687 0-.855.281-1.584.844-2.188.583-.583 1.281-.875 2.094-.875h2.875c1.02-5.062 1.531-15.75 1.531-32.062 0-.688-.042-4.49-.125-11.407-.688 0-1.396.011-2.125.032l-1.125.031c-2.188 0-3.281-.959-3.281-2.875 0-1.271.573-2.156 1.718-2.656 1.063-.438 2.886-.657 5.469-.657 10.813 0 19.448.979 25.906 2.938 4.313 1.312 6.469 2.844 6.469 4.594 0 .729-.281 1.395-.844 2-.541.583-1.135.875-1.781.875-.375 0-1.177-.25-2.406-.75-1.542-.646-2.854-1.094-3.938-1.344-2.833-.709-8.76-1.354-17.781-1.938 0 3.771-.042 9.75-.125 17.938 2.625.166 5.146.25 7.563.25 1.687 0 3.437-.063 5.25-.188 1.812-.125 2.791-.187 2.937-.187 2.25 0 3.375.958 3.375 2.875 0 1.5-.948 2.448-2.844 2.844-1.291.27-4.198.406-8.718.406-2.5 0-5.063-.063-7.688-.188-.208 9.563-.594 16.052-1.156 19.469h1.281c8.354 0 14.646-.625 18.875-1.875 1.146-.333 2.771-1.031 4.875-2.094 1.688-.854 2.927-1.281 3.719-1.281.75 0 1.406.271 1.969.813.562.541.843 1.166.843 1.875zm57.125 4.031c0 1.562-.833 3.073-2.5 4.531v-.062c-1.583 1.375-3.76 2.062-6.531 2.062-3.583 0-6.25-.625-8-1.875-.521-.375-1.167-1.01-1.937-1.906-1.25-1.438-1.969-2.25-2.157-2.438-6.604-6.979-11.145-11.073-13.625-12.281a145.778 145.778 0 0 1-3.218-1.219c-1.042-.437-1.563-1.229-1.563-2.375 0-1.958 1.656-3.062 4.969-3.312 3.562-.292 6.458-1.719 8.687-4.281 2.23-2.584 3.344-5.75 3.344-9.5 0-8.48-5.396-12.719-16.187-12.719h-.5c-2.688 11-4.032 22.833-4.032 35.5 0 2.187.063 4.489.188 6.906s.187 3.729.187 3.938c0 2.895-1 4.343-3 4.343-1.625 0-2.687-.989-3.187-2.968-.396-1.584-.594-4.823-.594-9.719 0-15.042 1.302-27.5 3.906-37.375-7.687 1.291-11.937 1.937-12.75 1.937-2.979 0-4.468-1.073-4.468-3.218 0-1.334.552-2.25 1.656-2.75.646-.271 1.469-.428 2.469-.469.854-.042 1.718-.073 2.593-.094.646-.062 3.334-.479 8.063-1.25 3.521-.583 6.552-.875 9.094-.875 15.479 0 23.218 6.146 23.218 18.438 0 3.895-1.073 7.5-3.218 10.812-2.146 3.292-5.146 5.875-9 7.75 3.02 2.292 5.989 4.969 8.906 8.031 3.458 3.625 5.229 5.469 5.312 5.532 1.063.937 2.813 1.406 5.25 1.406 1.167 0 1.907-.167 2.219-.5l2-2.125c.688-.625 1.344-.938 1.969-.938.667 0 1.239.292 1.719.875.479.584.718 1.313.718 2.188z"/>
    <path fill="url(#e)" d="M565.901 198.684l.77-1.846-.37-.154h-.4v2zm-.75-.312l.798-1.834-2.63-1.144-.164 2.863 1.996.115zm-9.656 51.594l1.807.856.004-.007-1.811-.849zm-16.281-26.313l1.985-.246-3.881-.391 1.896.637zm-8.188 20.781l-1.762-.945-.003.006 1.765.939zm-11.718 3.875l-1.622 1.171.001.002 1.621-1.173zm-4.407-9.218l-1.876.691.001.004 1.875-.695zm-4.718-40.719h2v-2.21l-2.199.22.199 1.99zm-1.657.281l-.415-1.956h-.004l.419 1.956zm13.094-5.625l-.778 1.843.009.003.009.004.76-1.85zm-2.469 5.813l-.568 1.917.01.003.009.003.549-1.923zm-2.718-.594l.181-1.992-2.147-.195-.034 2.155 2 .032zm-.125 7.812l-2-.032v.032h2zm7.75 37.938l-1.768.935 1.503 2.844 1.885-2.607-1.62-1.172zm10.937-26.688l-1.912-.587v.002l1.912.585zm2.188-8.781l-1.958-.411v.001l1.958.41zm1.437-5.5l1.826.817.003-.007-1.829-.81zm5.438.25l1.912-.585-.003-.011-.004-.012-1.905.608zm.437 8.25l1.999.059v-.002l-1.999-.057zm6.188 34.469l-1.831.804 1.936 4.409 1.757-4.484-1.862-.729zm8.312-48.25l1.997.111.125-2.257-2.255.15.133 1.996zm-1.594.281l-.433-1.952-.011.002-.01.002.454 1.948zm10.907-5.125l.953-1.758-.012-.007-.941 1.765zm.593 3.313c0 .172-.047.387-.337.697l2.924 2.73c.877-.94 1.413-2.099 1.413-3.427h-4zm-.337.697c-.289.311-.434.303-.475.303v4c1.375 0 2.522-.634 3.399-1.573l-2.924-2.73zm-.475.303a2.15 2.15 0 0 1-.613-.104l-1.149 3.832a6.134 6.134 0 0 0 1.762.272v-4zm-.613-.104a8.551 8.551 0 0 1-.805-.274l-1.539 3.692c.34.142.746.279 1.195.414l1.149-3.832zm-1.575-.428a1.942 1.942 0 0 1 .362.033c.063.012.113.025.141.032l.071.02.04.013.038.013.008.003a43.257 43.257 0 0 1-.612-.26l-1.595 3.668c.242.105.436.188.575.246a9.03 9.03 0 0 0 .321.125c.025.008.074.024.136.04a2.035 2.035 0 0 0 .515.067v-4zm-2.746 1.573c-1.351 23.507-4.556 40.386-9.47 50.859l3.621 1.699c5.252-11.194 8.485-28.71 9.842-52.328l-3.993-.23zm-9.467 50.852c-1.249 2.634-2.326 3.075-2.943 3.075v4c3.05 0 5.139-2.371 6.557-5.362l-3.614-1.713zm-2.943 3.075c-.552 0-1.256-.247-2.129-1.234-.898-1.014-1.837-2.668-2.758-5.105-1.836-4.862-3.404-12.306-4.659-22.438l-3.97.492c1.266 10.222 2.88 18.044 4.887 23.359 1.002 2.652 2.15 4.814 3.505 6.344 1.379 1.558 3.093 2.582 5.124 2.582v-4zm-13.427-29.168c-3.31 9.848-5.995 16.634-8.054 20.473l3.525 1.891c2.232-4.162 5.006-11.229 8.321-21.09l-3.792-1.274zm-8.057 20.479c-1.158 2.175-2.24 3.671-3.215 4.6-.971.924-1.687 1.152-2.176 1.152v4c1.865 0 3.519-.908 4.934-2.255 1.41-1.342 2.729-3.252 3.988-5.618l-3.531-1.879zm-5.391 5.752c-.714 0-1.709-.406-2.942-2.11l-3.241 2.345c1.601 2.212 3.647 3.765 6.183 3.765v-4zm-2.941-2.109c-1.19-1.647-2.584-4.511-4.152-8.743l-3.751 1.391c1.598 4.31 3.142 7.592 4.66 9.694l3.243-2.342zm-4.151-8.739c-3.021-8.203-4.595-20.739-4.595-37.777h-4c0 17.17 1.571 30.28 4.842 39.16l3.753-1.383zm-4.595-37.777v-2.25h-4v2.25h4zm-2.199-4.24c-.522.052-1.155.162-1.873.315l.83 3.912a14.304 14.304 0 0 1 1.441-.247l-.398-3.98zm-1.877.315c-.266.057-.473.096-.627.119-.167.025-.222.025-.204.025v4c.484 0 1.085-.107 1.669-.232l-.838-3.912zm-.831.144c-.718 0-.893-.182-.908-.198-.027-.028-.217-.242-.217-1.021h-4c0 1.366.332 2.761 1.347 3.807 1.025 1.057 2.413 1.412 3.778 1.412v-4zm-1.125-1.219c0-.144.031-.225.126-.332.13-.148.435-.389 1.082-.633 1.321-.5 3.528-.816 6.792-.816v-4c-3.402 0-6.195.313-8.207 1.074-1.02.386-1.965.932-2.668 1.73a4.422 4.422 0 0 0-1.125 2.977h4zm8-1.781c2.964 0 5.157.382 6.691 1.03l1.556-3.685c-2.216-.936-5.002-1.345-8.247-1.345v4zm6.709 1.037c.799.328 1.227.633 1.432.846.095.097.125.158.134.176.005.014.007.019.007.034h4c0-2.471-2.025-3.922-4.052-4.756l-1.521 3.7zm1.573 1.056c0 .857-.197 1.126-.239 1.172-.005.006-.129.172-.761.172v4c1.367 0 2.743-.391 3.738-1.5.958-1.068 1.262-2.471 1.262-3.844h-4zm-1 1.344c-.203 0-.736-.076-1.732-.361l-1.099 3.847c1.046.298 2.034.514 2.831.514v-4zm-1.713-.355c-1.177-.349-2.228-.588-3.106-.668l-.362 3.984c.496.045 1.258.201 2.331.519l1.137-3.835zm-5.287 1.292l-.125 7.812 3.999.064.125-7.812-3.999-.064zm-.125 7.844c0 15.723 2.614 28.721 7.982 38.873l3.536-1.87c-4.966-9.39-7.518-21.684-7.518-37.003h-4zm11.37 39.11c3.427-4.74 7.152-13.938 11.23-27.275l-3.825-1.17c-4.089 13.372-7.656 21.966-10.646 26.101l3.241 2.344zm11.229-27.273c.753-2.452 1.496-5.442 2.233-8.958l-3.915-.82c-.721 3.442-1.436 6.306-2.142 8.604l3.824 1.174zm2.233-8.957c.616-2.93 1.056-4.536 1.306-5.094l-3.652-1.634c-.458 1.026-.976 3.086-1.569 5.906l3.915.822zm1.309-5.101c.19-.43.358-.599.433-.657.045-.035.088-.059.207-.059v-4c-.964 0-1.875.293-2.652.893-.749.578-1.273 1.362-1.646 2.204l3.658 1.619zm.64-.716c.442 0 .63.101.707.157.076.055.226.197.356.607l3.811-1.216c-.328-1.028-.903-1.964-1.816-2.627-.912-.663-1.98-.921-3.058-.921v4zm1.056.741c.088.288.194.891.27 1.921.073.996.111 2.281.111 3.869h4c0-1.641-.039-3.033-.122-4.162-.081-1.095-.21-2.065-.434-2.798l-3.825 1.17zm.381 5.79c0 .496-.01 1.101-.03 1.818l3.998.114c.021-.741.032-1.386.032-1.932h-4zm-.03 1.816c-.02.696-.032 1.168-.032 1.372h4c0-.131.009-.534.03-1.254l-3.998-.118zm-.032 1.372c0 12.881 2.108 24.218 6.388 33.96l3.662-1.609c-4.012-9.133-6.05-19.9-6.05-32.351h-4zm10.081 33.885c4.49-11.459 7.276-27.791 8.447-48.868l-3.994-.222c-1.162 20.922-3.917 36.757-8.178 47.631l3.725 1.459zm6.317-50.975c-.481.032-1.147.158-1.894.325l.867 3.904c.752-.167 1.149-.228 1.293-.238l-.266-3.991zm-1.915.329c-.576.135-.89.167-1.014.167v4c.583 0 1.248-.114 1.923-.271l-.909-3.896zm-1.014.167c-.692 0-.849-.176-.855-.183-.021-.021-.208-.231-.208-1.005h-4c0 1.351.324 2.736 1.324 3.777 1.014 1.055 2.389 1.411 3.739 1.411v-4zm-1.063-1.188c0-.198.047-.299.113-.386.087-.113.297-.312.781-.523 1.013-.442 2.773-.747 5.481-.747v-4c-2.876 0-5.303.305-7.081 1.081-.912.398-1.749.961-2.36 1.762a4.557 4.557 0 0 0-.934 2.813h4zm6.375-1.656c2.61 0 4.616.462 6.121 1.265l1.883-3.53c-2.245-1.197-4.947-1.735-8.004-1.735v4zm6.109 1.258c1.468.796 1.547 1.369 1.547 1.555h4c0-2.357-1.649-3.992-3.64-5.071l-1.907 3.516zm22.266 56.773l-.894-1.789-.008.004-.007.004.909 1.781zm-17 .344l.736-1.86-.008-.003-.009-.003-.719 1.866zm2.219-6l-.594 1.91.009.003.01.003.575-1.916zm2.781.781l-.412 1.957 2.175.458.227-2.211-1.99-.204zm-2.219-45.312l1.908-.602-.508-1.608-1.67.228.27 1.982zm-3.156.844l.666 1.885.013-.004.013-.005-.692-1.876zm-3.812-.313l-1.546 1.269 1.546-1.269zm18.812-4.969l-.857 1.807.002.001.855-1.808zm-.812 6.219l-.611 1.905.007.002.604-1.907zm-4.313-1.187l.424-1.955-3.27-.709.924 3.216 1.922-.552zm1.781 44.781l-1.986-.229-.342 2.963 2.871-.809-.543-1.925zm3.563-1.313l.764 1.849.007-.004-.771-1.845zm4.375.063l-1.443 1.385.001.001 1.442-1.386zm-1.219 1.969c0 .74-.337 1.526-1.894 2.304l1.789 3.578c2.442-1.221 4.105-3.165 4.105-5.882h-4zm-1.909 2.312c-1.593.813-4.071 1.313-7.622 1.313v4c3.824 0 7.034-.522 9.44-1.75l-1.818-3.563zm-7.622 1.313c-3.544 0-6.075-.391-7.733-1.048l-1.472 3.72c2.342.927 5.458 1.328 9.205 1.328v-4zm-7.75-1.054c-.844-.326-1.297-.645-1.519-.879-.181-.19-.2-.305-.2-.411h-4c0 2.612 2.041 4.159 4.281 5.022l1.438-3.732zm-1.719-1.29c0-.814.194-1.052.229-1.089.013-.015.173-.192.865-.192v-4c-1.371 0-2.758.369-3.776 1.448-.996 1.057-1.318 2.459-1.318 3.833h4zm1.094-1.281c.161 0 .628.066 1.531.347l1.188-3.82c-.972-.302-1.922-.527-2.719-.527v4zm1.55.353c1.432.429 2.448.718 2.944.822l.824-3.914c-.296-.062-1.133-.294-2.618-.74l-1.15 3.832zm5.346-.931c.858-8.37 1.291-15.371 1.291-20.985h-4c0 5.428-.42 12.281-1.27 20.577l3.979.408zm1.291-20.985c0-9.131-1.189-17.515-3.592-25.133l-3.815 1.204c2.263 7.173 3.407 15.144 3.407 23.929h4zm-5.77-26.513c-1.102.15-2.3.478-3.577.949l1.383 3.753c1.097-.404 2.003-.639 2.735-.739l-.541-3.963zm-3.552.94c-.506.178-.893.301-1.173.376a4.27 4.27 0 0 1-.294.069c-.07.013-.045.003.039.003v4c.449 0 .924-.11 1.293-.209.417-.112.911-.271 1.467-.468l-1.332-3.771zm-1.428.448c-.019 0-.026-.002-.024-.002l.002.001a.56.56 0 0 1-.151-.143l-3.091 2.538c.803.977 1.915 1.606 3.264 1.606v-4zm-.173-.144c-.14-.17-.264-.429-.264-.918h-4c0 1.26.354 2.46 1.173 3.456l3.091-2.538zm-.264-.918c0-.384.094-.636.233-.835.152-.216.443-.489 1.008-.758 1.184-.562 3.208-.939 6.29-.939v-4c-3.272 0-6.013.379-8.007 1.327-1.023.486-1.924 1.158-2.566 2.074-.655.934-.958 2.004-.958 3.131h4zm7.531-2.532c4.058 0 7.059.568 9.143 1.557l1.715-3.614c-2.833-1.344-6.499-1.943-10.858-1.943v4zm9.145 1.558c1.976.935 2.355 1.845 2.355 2.567h4c0-2.903-1.954-4.909-4.644-6.183l-1.711 3.616zm2.355 2.567c0 .278-.029.452-.054.547-.025.09-.037.079.006.025a.466.466 0 0 1 .178-.135c.045-.019.027.001-.099.001v4c1.091 0 2.23-.359 3.033-1.353.737-.912.936-2.055.936-3.085h-4zm.031.438c.1 0 .129.012.034-.005a6.512 6.512 0 0 1-.363-.082 26.735 26.735 0 0 1-1.411-.414l-1.207 3.814a30.04 30.04 0 0 0 1.636.477c.376.095.874.21 1.311.21v-4zm-1.733-.499c-1.668-.534-3.169-.949-4.499-1.237l-.847 3.909c1.17.254 2.543.63 4.125 1.138l1.221-3.81zm-6.845 1.27c2.111 7.349 3.172 15.142 3.172 23.385h4c0-8.59-1.106-16.756-3.328-24.49l-3.844 1.105zm3.172 23.385c0 5.289-.481 12.152-1.455 20.615l3.973.458c.984-8.538 1.482-15.57 1.482-21.073h-4zm1.074 22.769c.93-.263 2.206-.737 3.784-1.389l-1.528-3.697c-1.547.639-2.646 1.04-3.342 1.236l1.086 3.85zm3.791-1.393c.527-.22.946-.369 1.267-.46.159-.045.282-.072.371-.088.092-.016.129-.015.122-.015v-4c-.978 0-2.148.39-3.303.873l1.543 3.69zm1.76-.563c.191 0 .282.042.401.166l2.886-2.77a4.456 4.456 0 0 0-3.287-1.396v4zm.402.167c.153.159.223.314.223.583h4c0-1.273-.45-2.431-1.339-3.355l-2.884 2.772zm54.161-42.511l-1.973-.333v.001l1.973.332zm-1.563 11.156l-1.989-.205-.001.01 1.99.195zm-1.062 27.188l-1.996.127v.009l.001.009 1.995-.145zm-7.75 6.562l-1.357 1.47.01.009 1.347-1.479zm-5.375-6.5l1.62-1.172-.002-.004-1.618 1.176zm-20.938-35.969l1.813-.845-2.291-4.913-1.449 5.224 1.927.534zm-3.844 32.344l-1.999-.058v.002l1.999.056zm-.375 9.531l-1.964-.374-.007.033-.005.033 1.976.308zm-6.125-.281l-1.957.41.002.009.002.009 1.953-.428zm3.938-42.937l-1.959-.403-.002.007 1.961.396zm2.375-8.125l-1.781-.911-.003.007 1.784.904zm6.156-1l-1.75.968.137.247.199.199 1.414-1.414zm2.219 4.968l-1.831.805.002.005 1.829-.81zm23.25 39.25l-1.54 1.277 3.54 4.268v-5.545h-2zm2.937-38.718l1.971.342.001-.006-1.972-.336zm1.532-5.719l-1.783-.907-.006.012 1.789.895zm3.5 1.812c0 .627-.253 2.579-.848 6.105l3.945.665c.572-3.39.903-5.73.903-6.77h-4zm-.848 6.106c-.713 4.238-1.241 8-1.579 11.283l3.979.41c.327-3.176.842-6.851 1.545-11.029l-3.945-.664zm-1.58 11.293c-.858 8.741-1.291 15.958-1.291 21.633h4c0-5.493.421-12.567 1.272-21.243l-3.981-.39zm-1.291 21.633c0 1.599.075 3.561.223 5.877l3.992-.254c-.145-2.268-.215-4.139-.215-5.623h-4zm.224 5.895c.168 2.305.245 3.752.245 4.417h4c0-.835-.09-2.429-.256-4.708l-3.989.291zm.245 4.417c0 1.189-.249 1.711-.408 1.908-.093.115-.298.311-.999.311v4c1.571 0 3.069-.508 4.111-1.799.976-1.209 1.296-2.797 1.296-4.42h-4zm-1.407 2.219c-.733 0-1.802-.383-3.247-1.698l-2.693 2.958c1.805 1.643 3.798 2.74 5.94 2.74v-4zm-3.237-1.689c-1.2-1.107-2.895-3.138-5.111-6.202l-3.241 2.344c2.243 3.102 4.131 5.405 5.639 6.798l2.713-2.94zm-5.113-6.206c-7.667-10.552-14.583-22.429-20.743-35.638l-3.625 1.691c6.256 13.415 13.298 25.517 21.132 36.299l3.236-2.352zm-24.483-35.327c-2.23 8.038-3.518 19.004-3.916 32.82l3.999.116c.393-13.684 1.667-24.281 3.771-31.867l-3.854-1.069zm-3.916 32.822c-.083 2.956-.156 5.22-.218 6.798a106.9 106.9 0 0 1-.084 1.832c-.029.503-.048.632-.038.583l3.929.748c.051-.267.079-.699.102-1.1.027-.47.057-1.107.088-1.906.063-1.6.136-3.882.22-6.843l-3.999-.112zm-.352 9.279c-.119.764-.327 1.063-.421 1.159-.048.048-.153.149-.54.149v4c1.258 0 2.466-.399 3.398-1.35.885-.904 1.322-2.105 1.515-3.341l-3.952-.617zm-.961 1.308c-.33 0-.474-.087-.597-.214-.177-.182-.442-.605-.637-1.495l-3.907.856c.284 1.297.79 2.515 1.675 3.427.94.967 2.15 1.426 3.466 1.426v-4zm-1.23-1.691c-.139-.662-.239-2.199-.239-4.809h-4c0 2.558.087 4.5.324 5.629l3.915-.82zm-.239-4.809c0-11.045 1.386-23.483 4.179-37.323l-3.921-.791c-2.832 14.035-4.258 26.743-4.258 38.114h4zm4.178-37.316c.789-3.841 1.539-6.319 2.2-7.624l-3.568-1.807c-.923 1.82-1.756 4.759-2.55 8.626l3.918.805zm2.197-7.617c.729-1.426 1.401-1.66 1.938-1.66v-4c-2.547 0-4.354 1.598-5.5 3.839l3.562 1.821zm1.938-1.66c.061 0 .103.008.177.062.099.071.285.25.51.656l3.5-1.937c-.853-1.541-2.224-2.781-4.187-2.781v4zm1.023 1.164a1.9 1.9 0 0 1-.337-.452c-.009-.015-.01-.018 0 .002l.096.205c.093.202.231.507.415.919.367.823.91 2.05 1.628 3.685l3.662-1.609a660.953 660.953 0 0 0-1.638-3.707 76.995 76.995 0 0 0-.564-1.239 3.801 3.801 0 0 0-.064-.128c-.012-.021-.033-.061-.062-.109a1.951 1.951 0 0 0-.308-.396l-2.828 2.829zm1.804 4.364c7.156 16.158 14.994 29.412 23.539 39.717l3.079-2.553c-8.246-9.946-15.908-22.858-22.96-38.784l-3.658 1.62zm27.079 38.44v-2.312h-4v2.312h4zm0-2.312c0-12.901.972-24.92 2.908-36.064l-3.941-.685c-1.981 11.398-2.967 23.649-2.967 36.749h4zm2.909-36.07c.454-2.666.928-4.319 1.348-5.161l-3.577-1.789c-.705 1.409-1.252 3.568-1.714 6.277l3.943.673zm1.342-5.149c.217-.425.401-.608.498-.679a.316.316 0 0 1 .22-.071v-4c-2.043 0-3.446 1.291-4.283 2.937l3.565 1.813zm.718-.75c.575 0 .682.156.703.183.084.102.297.477.297 1.473h4c0-1.441-.288-2.894-1.204-4.011-.979-1.192-2.372-1.645-3.796-1.645v4zm58.125 8.094l-1.973-.333v.001l1.973.332zm-1.563 11.156l-1.989-.205-.001.01 1.99.195zm-1.062 27.188l-1.996.127v.009l.001.009 1.995-.145zm-7.75 6.562l-1.357 1.47.01.009 1.347-1.479zm-5.375-6.5l1.62-1.172-.002-.004-1.618 1.176zm-20.938-35.969l1.813-.845-2.291-4.913-1.449 5.224 1.927.534zm-3.844 32.344l-1.999-.058v.002l1.999.056zm-.375 9.531l-1.964-.374-.007.033-.005.033 1.976.308zm-6.125-.281l-1.957.41.002.009.002.009 1.953-.428zm3.938-42.937l-1.959-.403-.002.007 1.961.396zm2.375-8.125l-1.781-.911-.003.007 1.784.904zm6.156-1l-1.75.968.137.247.199.199 1.414-1.414zm2.219 4.968l-1.831.805.002.005 1.829-.81zm23.25 39.25l-1.54 1.277 3.54 4.268v-5.545h-2zm2.937-38.718l1.971.342.001-.006-1.972-.336zm1.532-5.719l-1.783-.907-.006.012 1.789.895zm3.5 1.812c0 .627-.253 2.579-.848 6.105l3.945.665c.572-3.39.903-5.73.903-6.77h-4zm-.848 6.106c-.713 4.238-1.241 8-1.579 11.283l3.979.41c.327-3.176.842-6.851 1.545-11.029l-3.945-.664zm-1.58 11.293c-.858 8.741-1.291 15.958-1.291 21.633h4c0-5.493.421-12.567 1.272-21.243l-3.981-.39zm-1.291 21.633c0 1.599.075 3.561.223 5.877l3.992-.254c-.145-2.268-.215-4.139-.215-5.623h-4zm.224 5.895c.168 2.305.245 3.752.245 4.417h4c0-.835-.09-2.429-.256-4.708l-3.989.291zm.245 4.417c0 1.189-.249 1.711-.408 1.908-.093.115-.298.311-.999.311v4c1.571 0 3.069-.508 4.111-1.799.976-1.209 1.296-2.797 1.296-4.42h-4zm-1.407 2.219c-.733 0-1.802-.383-3.247-1.698l-2.693 2.958c1.805 1.643 3.798 2.74 5.94 2.74v-4zm-3.237-1.689c-1.2-1.107-2.895-3.138-5.111-6.202l-3.241 2.344c2.243 3.102 4.131 5.405 5.639 6.798l2.713-2.94zm-5.113-6.206c-7.667-10.552-14.583-22.429-20.743-35.638l-3.625 1.691c6.256 13.415 13.298 25.517 21.132 36.299l3.236-2.352zm-24.483-35.327c-2.23 8.038-3.518 19.004-3.916 32.82l3.999.116c.393-13.684 1.667-24.281 3.771-31.867l-3.854-1.069zm-3.916 32.822c-.083 2.956-.156 5.22-.218 6.798a106.9 106.9 0 0 1-.084 1.832c-.029.503-.048.632-.038.583l3.929.748c.051-.267.079-.699.102-1.1.027-.47.057-1.107.088-1.906.063-1.6.136-3.882.22-6.843l-3.999-.112zm-.352 9.279c-.119.764-.327 1.063-.421 1.159-.048.048-.153.149-.54.149v4c1.258 0 2.466-.399 3.398-1.35.885-.904 1.322-2.105 1.515-3.341l-3.952-.617zm-.961 1.308c-.33 0-.474-.087-.597-.214-.177-.182-.442-.605-.637-1.495l-3.907.856c.284 1.297.79 2.515 1.675 3.427.94.967 2.15 1.426 3.466 1.426v-4zm-1.23-1.691c-.139-.662-.239-2.199-.239-4.809h-4c0 2.558.087 4.5.324 5.629l3.915-.82zm-.239-4.809c0-11.045 1.386-23.483 4.179-37.323l-3.921-.791c-2.832 14.035-4.258 26.743-4.258 38.114h4zm4.178-37.316c.789-3.841 1.539-6.319 2.2-7.624l-3.568-1.807c-.923 1.82-1.756 4.759-2.55 8.626l3.918.805zm2.197-7.617c.729-1.426 1.401-1.66 1.938-1.66v-4c-2.547 0-4.354 1.598-5.5 3.839l3.562 1.821zm1.938-1.66c.061 0 .103.008.177.062.099.071.285.25.51.656l3.5-1.937c-.853-1.541-2.224-2.781-4.187-2.781v4zm1.023 1.164a1.9 1.9 0 0 1-.337-.452c-.009-.015-.01-.018 0 .002l.096.205c.093.202.231.507.415.919.367.823.91 2.05 1.628 3.685l3.662-1.609a660.953 660.953 0 0 0-1.638-3.707 76.995 76.995 0 0 0-.564-1.239 3.801 3.801 0 0 0-.064-.128c-.012-.021-.033-.061-.062-.109a1.951 1.951 0 0 0-.308-.396l-2.828 2.829zm1.804 4.364c7.156 16.158 14.994 29.412 23.539 39.717l3.079-2.553c-8.246-9.946-15.908-22.858-22.96-38.784l-3.658 1.62zm27.079 38.44v-2.312h-4v2.312h4zm0-2.312c0-12.901.972-24.92 2.908-36.064l-3.941-.685c-1.981 11.398-2.967 23.649-2.967 36.749h4zm2.909-36.07c.454-2.666.928-4.319 1.348-5.161l-3.577-1.789c-.705 1.409-1.252 3.568-1.714 6.277l3.943.673zm1.342-5.149c.217-.425.401-.608.498-.679a.316.316 0 0 1 .22-.071v-4c-2.043 0-3.446 1.291-4.283 2.937l3.565 1.813zm.718-.75c.575 0 .682.156.703.183.084.102.297.477.297 1.473h4c0-1.441-.288-2.894-1.204-4.011-.979-1.192-2.372-1.645-3.796-1.645v4zm45.25 50.75l.706 1.871.003-.001-.709-1.87zm-14.532 3.063l.174 1.992h.004l-.178-1.992zm-19.656.187l.392-1.961-.009-.002-.01-.002-.373 1.965zm-2.281-4.875l-1.414-1.414-.026.025-.024.026 1.464 1.363zm4.969-.875v2h1.637l.323-1.605-1.96-.395zm1.406-43.469l2-.024-.024-1.976h-1.976v2zm-4.813-5.468l-.761-1.85-.019.008-.02.008.8 1.834zm31.375 2.281l.583-1.914h-.002l-.581 1.914zm5.625 6.594l-1.463-1.363-.002.002 1.465 1.361zm-4.187.125l-.773 1.844.01.004.009.004.754-1.852zm-3.938-1.344l-.485 1.94.018.004.018.005.449-1.949zm-17.781-1.938l.129-1.996-2.129-.137v2.133h2zm-.125 17.938l-2-.021-.019 1.897 1.892.12.127-1.996zm16.281 5.594l-.408-1.958h-.002l.41 1.958zm-16.406.218l.095-1.997-2.05-.098-.044 2.052 1.999.043zm-1.156 19.469l-1.974-.325-.382 2.325h2.356v-2zm20.156-1.875l-.559-1.92-.008.002.567 1.918zm4.875-2.094l.902 1.786.001-.001-.903-1.785zm4.531 1.407c0 .011.004.362-.833 1.03-.822.656-2.187 1.391-4.22 2.162l1.419 3.74c2.197-.833 4.004-1.744 5.296-2.775 1.277-1.02 2.338-2.399 2.338-4.157h-4zm-5.05 3.191c-3.872 1.462-8.53 2.453-14.002 2.941l.355 3.985c5.736-.512 10.766-1.563 15.06-3.184l-1.413-3.742zm-13.998 2.941c-3.265.284-8.164.43-14.733.43v4c6.598 0 11.637-.146 15.08-.445l-.347-3.985zm-14.733.43c-2.354 0-3.746-.089-4.358-.211l-.784 3.922c1.055.211 2.829.289 5.142.289v-4zm-4.377-.215c-.868-.165-1.264-.392-1.413-.52a.384.384 0 0 1-.069-.077l-.008-.027a.544.544 0 0 1-.008-.098h-4c0 1.269.507 2.4 1.477 3.235.893.768 2.06 1.186 3.275 1.417l.746-3.93zm-1.498-.722c0-.368.103-.605.308-.825l-2.928-2.726c-.92.988-1.38 2.21-1.38 3.551h4zm.258-.774c.215-.214.407-.289.68-.289v-4c-1.352 0-2.556.509-3.508 1.461l2.828 2.828zm.68-.289h2.875v-4h-2.875v4zm4.835-1.605c1.068-5.293 1.571-16.187 1.571-32.457h-4c0 16.354-.518 26.835-1.492 31.667l3.921.79zm1.571-32.457c0-.704-.042-4.525-.125-11.431l-4 .048c.083 6.928.125 10.711.125 11.383h4zm-2.125-13.407c-.708 0-1.435.011-2.182.032l.114 3.999a70.093 70.093 0 0 1 2.068-.031v-4zm-2.182.032a266.455 266.455 0 0 1-1.068.031v4c.059 0 .487-.012 1.182-.032l-.114-3.999zm-1.068.031c-.846 0-1.106-.191-1.143-.223-.013-.012-.037-.033-.064-.106-.032-.084-.074-.252-.074-.546h-4c0 1.34.394 2.69 1.502 3.66 1.057.927 2.437 1.215 3.779 1.215v-4zm-1.281-.875c0-.33.071-.473.108-.531.036-.056.129-.17.41-.292l-1.6-3.667c-.865.378-1.631.956-2.168 1.786-.535.828-.75 1.763-.75 2.704h4zm.48-.807c.667-.275 2.139-.506 4.707-.506v-4c-2.599 0-4.772.207-6.23.807l1.523 3.699zm4.707-.506c10.719 0 19.134.974 25.326 2.852l1.161-3.828c-6.725-2.039-15.581-3.024-26.487-3.024v4zm25.324 2.851c2.074.631 3.454 1.267 4.276 1.85.402.286.605.513.699.657.083.125.076.173.076.174h4c0-1.805-1.135-3.151-2.459-4.092-1.335-.948-3.189-1.734-5.427-2.416l-1.165 3.827zm5.051 2.681c0 .155-.04.35-.307.637l2.927 2.725c.858-.921 1.38-2.06 1.38-3.362h-4zm-.309.639a1.01 1.01 0 0 1-.268.222c-.029.014-.038.014-.048.014v4c1.327 0 2.421-.625 3.247-1.515l-2.931-2.721zm-.316.236c.104 0 .136.014.054-.004a4.075 4.075 0 0 1-.342-.093 18.639 18.639 0 0 1-1.365-.506l-1.507 3.705a21.69 21.69 0 0 0 1.682.619c.415.13.962.279 1.478.279v-4zm-1.633-.595c-1.6-.67-3.027-1.163-4.261-1.448l-.899 3.898c.932.215 2.13.618 3.614 1.239l1.546-3.689zm-4.226-1.44c-3.039-.759-9.151-1.411-18.137-1.993l-.258 3.992c9.056.586 14.798 1.225 17.425 1.882l.97-3.881zm-20.266.003c0 3.76-.041 9.731-.125 17.917l4 .041c.083-8.188.125-14.176.125-17.958h-4zm1.748 19.934c2.664.169 5.227.254 7.69.254v-4c-2.371 0-4.85-.082-7.436-.246l-.254 3.992zm7.69.254c1.736 0 3.532-.065 5.387-.192l-.275-3.991c-1.77.122-3.474.183-5.112.183v4zm5.387-.192c.905-.063 1.599-.11 2.084-.14.533-.034.725-.043.716-.043v-4c-.237 0-1.328.072-3.075.192l.275 3.991zm2.8-.183c.888 0 1.181.196 1.234.241a.225.225 0 0 1 .068.105c.03.078.073.241.073.529h4c0-1.358-.413-2.714-1.547-3.679-1.072-.913-2.466-1.196-3.828-1.196v4zm1.375.875c0 .288-.072.369-.125.421-.102.102-.399.313-1.127.465l.817 3.915c1.168-.244 2.292-.705 3.138-1.551.896-.895 1.297-2.039 1.297-3.25h-4zm-1.254.886c-1.049.22-3.732.364-8.308.364v4c4.465 0 7.594-.127 9.129-.449l-.821-3.915zm-8.308.364c-2.467 0-4.998-.062-7.593-.185l-.19 3.995c2.655.126 5.249.19 7.783.19v-4zm-9.687 1.769c-.209 9.577-.594 15.93-1.131 19.187l3.947.65c.589-3.577.975-10.203 1.183-19.75l-3.999-.087zm.843 21.512h1.281v-4h-1.281v4zm1.281 0c8.407 0 14.931-.624 19.442-1.957l-1.134-3.836c-3.947 1.167-10.007 1.793-18.308 1.793v4zm19.434-1.955c1.329-.386 3.088-1.153 5.218-2.228l-1.803-3.571c-2.079 1.05-3.57 1.679-4.533 1.959l1.118 3.84zm5.219-2.229c.795-.403 1.439-.681 1.944-.855.529-.182.796-.211.872-.211v-4c-.716 0-1.464.185-2.175.429-.735.253-1.554.616-2.447 1.068l1.806 3.569zm2.816-1.066c.209 0 .374.054.581.253l2.775-2.881c-.918-.884-2.066-1.372-3.356-1.372v4zm.581.253c.216.207.231.328.231.435h4c0-1.311-.546-2.44-1.456-3.316l-2.775 2.881zm56.856 8.997h-2v4.408l3.317-2.903-1.317-1.505zm0-.062h2v-4.386l-3.311 2.875 1.311 1.511zm-14.531.187l-1.168 1.623.006.004 1.162-1.627zm-1.937-1.906l1.516-1.305-.007-.008-1.509 1.313zm-2.157-2.438l-1.452 1.375.019.02.019.019 1.414-1.414zm-13.625-12.281l.877-1.798-.093-.045-.097-.036-.687 1.879zm-3.218-1.219l-.775 1.844.022.009.022.009.731-1.862zm3.406-5.687l.15 1.994.013-.001-.163-1.993zm8.687-4.281l1.509 1.312.006-.006-1.515-1.306zm-13.343-22.219v-2h-1.571l-.372 1.525 1.943.475zm-9.844 47.719l-1.94.485.001.004 1.939-.489zm3.312-47.094l1.934.51.79-2.996-3.055.513.331 1.973zm-15.562-4.031l-.774-1.845-.026.011-.025.012.825 1.822zm2.469-.469l.083 1.998h.007l.007-.001-.097-1.997zm2.593-.094l.048 1.999.073-.001.072-.007-.193-1.991zm8.063-1.25l.322 1.974.005-.001-.327-1.973zm29.094 28.375l1.675 1.092.003-.005-1.678-1.087zm-9 7.75l-.875-1.798-2.928 1.424 2.594 1.967 1.209-1.593zm8.906 8.031l-1.448 1.38.001.001 1.447-1.381zm5.312 5.532l1.324-1.5-.06-.053-.064-.047-1.2 1.6zm7.469.906l-1.456-1.371-.003.003 1.459 1.368zm2-2.125l-1.345-1.48-.058.052-.053.057 1.456 1.371zm2.406 2.125c0 .777-.397 1.784-1.817 3.026l2.634 3.01c1.914-1.674 3.183-3.688 3.183-6.036h-4zm1.5 4.531v-.062h-4v.062h4zm-3.311-1.573c-1.116.97-2.774 1.573-5.22 1.573v4c3.096 0 5.792-.772 7.843-2.552l-2.623-3.021zm-5.22 1.573c-3.418 0-5.586-.608-6.837-1.502l-2.325 3.254c2.248 1.606 5.413 2.248 9.162 2.248v-4zm-6.831-1.498c-.328-.236-.852-.729-1.59-1.588l-3.032 2.609c.803.934 1.571 1.711 2.285 2.225l2.337-3.246zm-1.597-1.596c-1.217-1.399-2-2.288-2.251-2.539l-2.829 2.828a5.27 5.27 0 0 0 .046.049l.127.138c.105.117.246.274.423.474.354.4.842.958 1.465 1.675l3.019-2.625zm-2.213-2.499c-3.32-3.509-6.147-6.32-8.473-8.416-2.283-2.058-4.216-3.552-5.728-4.289l-1.753 3.596c.967.471 2.544 1.628 4.803 3.664 2.216 1.998 4.962 4.724 8.246 8.194l2.905-2.749zm-14.391-12.786a141.9 141.9 0 0 1-3.175-1.202l-1.461 3.724c1.078.423 2.165.834 3.263 1.236l1.373-3.758zm-3.131-1.184c-.226-.095-.272-.172-.275-.177-.005-.006-.062-.089-.062-.354h-4c0 .881.203 1.768.72 2.553.518.787 1.253 1.324 2.068 1.666l1.549-3.688zm-.337-.531c0-.297.069-.444.352-.633.41-.273 1.251-.57 2.767-.685l-.301-3.989c-1.796.136-3.439.516-4.685 1.346-1.374.916-2.133 2.3-2.133 3.961h4zm3.132-1.319c4.053-.332 7.442-1.983 10.033-4.962l-3.018-2.625c-1.867 2.146-4.269 3.349-7.341 3.6l.326 3.987zm10.039-4.968c2.574-2.983 3.829-6.628 3.829-10.806h-4c0 3.321-.974 6.01-2.858 8.193l3.029 2.613zm3.829-10.806c0-4.694-1.518-8.524-4.811-11.112-3.202-2.516-7.773-3.607-13.376-3.607v4c5.188 0 8.71 1.028 10.905 2.752 2.102 1.652 3.282 4.181 3.282 7.967h4zm-18.187-14.719h-.5v4h.5v-4zm-2.443 1.525c-2.73 11.173-4.089 23.167-4.089 35.975h4c0-12.526 1.329-24.198 3.974-35.026l-3.885-.949zm-4.089 35.975c0 2.225.064 4.562.191 7.009l3.994-.206a132.433 132.433 0 0 1-.185-6.803h-4zm.191 7.009c.062 1.208.109 2.137.14 2.789.015.326.027.581.034.764l.008.216.002.066h4c0-.277-.067-1.673-.19-4.041l-3.994.206zm.184 3.835c0 1.279-.232 1.884-.395 2.121a.41.41 0 0 1-.161.15c-.055.026-.185.072-.444.072v4c1.553 0 2.967-.604 3.896-1.949.837-1.211 1.104-2.778 1.104-4.394h-4zm-1 2.343c-.371 0-.536-.097-.652-.205-.157-.147-.404-.492-.596-1.253l-3.878.979c.307 1.218.842 2.357 1.748 3.201.946.881 2.125 1.278 3.378 1.278v-4zm-1.247-1.454c-.326-1.304-.534-4.295-.534-9.233h-4c0 4.853.188 8.341.654 10.204l3.88-.971zm-.534-9.233c0-14.943 1.295-27.215 3.84-36.865l-3.868-1.02c-2.663 10.099-3.972 22.744-3.972 37.885h4zm1.575-39.348a615.47 615.47 0 0 1-8.922 1.449c-1.056.16-1.886.278-2.496.356a23.036 23.036 0 0 1-.938.102l-.063.003v4c.598 0 2.056-.197 4.098-.507 2.14-.325 5.137-.811 8.984-1.458l-.663-3.945zm-12.419 1.91c-1.309 0-1.931-.246-2.182-.427-.13-.094-.286-.238-.286-.791h-4c0 1.592.588 3.057 1.948 4.036 1.238.892 2.851 1.182 4.52 1.182v-4zm-2.468-1.218c0-.392.08-.577.127-.656.04-.066.12-.167.354-.273l-1.65-3.643c-.871.394-1.618 1.002-2.131 1.852-.504.838-.7 1.778-.7 2.72h4zm.429-.906c.355-.149.923-.279 1.779-.315l-.167-3.997c-1.144.048-2.221.23-3.159.623l1.547 3.689zm1.793-.316c.837-.04 1.685-.071 2.544-.092l-.095-3.998c-.891.021-1.773.053-2.644.095l.195 3.995zm2.689-.1c.73-.071 3.51-.504 8.192-1.267l-.644-3.948c-4.776.779-7.371 1.179-7.933 1.233l.385 3.982zm8.197-1.268c3.452-.572 6.368-.848 8.767-.848v-4c-2.685 0-5.832.307-9.421.902l.654 3.946zm8.767-.848c7.528 0 12.805 1.504 16.17 4.176 3.277 2.602 5.048 6.562 5.048 12.262h4c0-6.593-2.098-11.851-6.561-15.395-4.374-3.474-10.707-5.043-18.657-5.043v4zm21.218 16.438c0 3.504-.958 6.732-2.897 9.725l3.357 2.174c2.353-3.631 3.54-7.612 3.54-11.899h-4zm-2.894 9.72c-1.93 2.961-4.64 5.312-8.199 7.044l1.75 3.596c4.149-2.018 7.439-4.833 9.8-8.456l-3.351-2.184zm-8.533 10.435c2.926 2.22 5.816 4.824 8.667 7.818l2.896-2.759c-2.982-3.131-6.03-5.882-9.146-8.245l-2.417 3.186zm8.668 7.819c1.729 1.813 3.038 3.182 3.926 4.106a292.605 292.605 0 0 0 1.305 1.348l.101.1.06.057c.005.004.075.07.167.14l2.4-3.2c.119.088.208.18.157.131l-.049-.049a192.532 192.532 0 0 1-1.256-1.298c-.883-.919-2.188-2.284-3.917-4.096l-2.894 2.761zm5.436 5.65c1.613 1.423 3.97 1.907 6.573 1.907v-4c-2.271 0-3.414-.454-3.926-.906l-2.647 2.999zm6.573 1.907c.662 0 1.3-.046 1.87-.174.528-.119 1.251-.364 1.808-.958l-2.918-2.736a1 1 0 0 1 .286-.22c.036-.017.025-.007-.056.012-.17.038-.484.076-.99.076v4zm3.676-1.13l1-1.062a60.958 60.958 0 0 1 .5-.531l.25-.266.25-.266-2.913-2.741-1 1.063-.25.265-.25.266-.25.265-.25.266 2.913 2.741zm1.888-2.015c.495-.45.691-.418.624-.418v-4c-1.317 0-2.434.657-3.314 1.458l2.69 2.96zm.624-.418c.02 0 .026.002.024.002l-.002-.001a.562.562 0 0 1 .151.144l3.091-2.539c-.802-.977-1.915-1.606-3.264-1.606v4zm.173.145c.14.17.264.428.264.918h4c0-1.261-.354-2.46-1.173-3.457l-3.091 2.539z"/>
    <defs>
        <radialGradient id="a" cx="0" cy="0" r="1" gradientTransform="matrix(0 472 -652 0 652 472)" gradientUnits="userSpaceOnUse">
            <stop/>
            <stop offset="1" stop-color="#636363" stop-opacity="0"/>
        </radialGradient>
        <linearGradient id="b" x1="652" x2="652" y1="222" y2="757" gradientUnits="userSpaceOnUse">
            <stop stop-color="#fff"/>
            <stop offset="1" stop-color="#C4C4C4"/>
        </linearGradient>
        <linearGradient id="c" x1="652.245" x2="652.245" y1="178.778" y2="265.778" gradientUnits="userSpaceOnUse">
            <stop stop-color="#A806B5"/>
            <stop offset="1" stop-color="#EC2C6F"/>
        </linearGradient>
        <linearGradient id="d" x1="652.245" x2="652.245" y1="178.778" y2="265.778" gradientUnits="userSpaceOnUse">
            <stop stop-color="#A806B5"/>
            <stop offset="1" stop-color="#EC2C6F"/>
        </linearGradient>
        <linearGradient id="e" x1="652.245" x2="652.245" y1="178.778" y2="265.778" gradientUnits="userSpaceOnUse">
            <stop stop-color="#A806B5"/>
            <stop offset="1" stop-color="#EC2C6F"/>
        </linearGradient>
    </defs>
</svg>
